<?xml version="1.0" encoding="UTF-8"?>
<svg version="1.1" xmlns="http://www.w3.org/2000/svg" width="164" height="148">
<path d="M0 0 C54.12 0 108.24 0 164 0 C164 48.84 164 97.68 164 148 C109.88 148 55.76 148 0 148 C0 99.16 0 50.32 0 0 Z " fill="#038C47" transform="translate(0,0)"/>
<path d="M0 0 C23.43 0 46.86 0 71 0 C71 48.84 71 97.68 71 148 C16.88 148 -37.24 148 -93 148 C-93 120.28 -93 92.56 -93 64 C-83.35498025 67.6168824 -83.35498025 67.6168824 -80.95703125 70.80078125 C-79.10637499 75.0535138 -78.88438447 79.66730928 -78.45703125 84.24609375 C-77.82957666 89.39980198 -76.89412858 93.65880713 -74 98 C-73.731875 99.175625 -73.46375 100.35125 -73.1875 101.5625 C-71.7210489 107.89756877 -68.58747795 113.61878308 -65 119 C-64.38452181 125.25736162 -65.0901705 128.11271313 -69 133 C-67.46798551 137.11374263 -64.53466588 139.27364806 -61.125 141.8125 C-60.59519531 142.23208984 -60.06539062 142.65167969 -59.51953125 143.08398438 C-56.46945375 145.41575973 -56.46945375 145.41575973 -52.77734375 145.921875 C-50.69980496 144.95786713 -50.69980496 144.95786713 -48.4375 142.4375 C-44.80188419 139.24480185 -41.32678501 139.4841401 -36.66015625 139.69140625 C-33.31203237 140.07980829 -30.23778004 141.07491999 -27 142 C-22.15415155 142.31007661 -17.45780161 142.22480118 -12.65625 141.484375 C-8.06566515 140.8762206 -3.57326856 140.98116105 1.0390625 141.12695312 C5.72639391 141.20386879 9.54725983 140.40158892 14 139 C19.07082106 138.56286025 21.92050659 138.9128158 26 142 C27.36984198 143.29579647 28.7151049 144.61992749 30 146 C34.3573226 144.52869627 37.71934134 142.16919385 41.3125 139.375 C41.86228516 138.95476562 42.41207031 138.53453125 42.97851562 138.1015625 C44.32292168 137.07279961 45.66201413 136.0370991 47 135 C45.87548273 132.0280615 44.77706209 129.66559313 43 127 C41.84709837 121.57914521 42.87567436 117.68271701 45.8125 113.0625 C46.63621094 111.81726563 46.63621094 111.81726563 47.4765625 110.546875 C49.44823438 107.25064407 50.37700788 103.98871722 51.3515625 100.296875 C52 98 52 98 53.5625 94.5625 C55.78122011 89.06393277 56.48945684 83.30831969 57.390625 77.46875 C58.33541727 72.21990403 59.55539452 69.33345411 64 66 C65.98 65.34 67.96 64.68 70 64 C68.02 54.595 68.02 54.595 66 45 C63.69 45.66 61.38 46.32 59 47 C54.58440935 47.54226552 52.73255448 47.48836965 49 45 C46.69069603 42.84911794 44.70811375 40.48259141 42.6875 38.0625 C38.31692029 32.92634202 32.99968819 29.77254302 27.25 26.375 C25 25 25 25 22.8984375 23.1953125 C18.61239436 19.94901028 13.86906606 17.73439418 9.0625 15.35546875 C1.54917104 11.51971659 1.54917104 11.51971659 0 8 C0 5.36 0 2.72 0 0 Z " fill="#FCFCFC" transform="translate(93,0)"/>
<path d="M0 0 C30.69 0 61.38 0 93 0 C93.495 3.96 93.495 3.96 94 8 C97.55299745 12.75786749 102.35140334 14.99944559 107.5625 17.5625 C112.41698198 19.96279467 116.23544043 22.03555231 120 26 C122.26027345 27.2048149 122.26027345 27.2048149 124.6875 28.1875 C130.64680197 31.02651849 134.58244865 35.1903583 139 40 C139.99405132 41.0059135 140.99281121 42.00724085 142 43 C143 44 144 45 145 46 C149.78252409 46.19130096 154.28211812 45.77026643 159 45 C161.71190018 51.19862897 163.33995394 57.20092117 163 64 C162.37351563 64.31453125 161.74703125 64.6290625 161.1015625 64.953125 C160.28429687 65.38109375 159.46703125 65.8090625 158.625 66.25 C157.81289062 66.66765625 157.00078125 67.0853125 156.1640625 67.515625 C153.65238238 69.23843808 152.96932297 70.13139447 152 73 C151.62488681 75.38683131 151.31963823 77.78509422 151.0625 80.1875 C150.35935323 86.11606239 149.19176818 91.44898913 147 97 C146.66162109 97.97453125 146.66162109 97.97453125 146.31640625 98.96875 C143.97188778 105.64466699 140.92644336 112.11033497 137 118 C136.24712813 122.59602013 136.36245833 126.63424645 139 130.5625 C139.66 131.366875 140.32 132.17125 141 133 C139.46642041 137.62233847 135.71292205 139.6356531 131.875 142.25 C131.21628906 142.70890625 130.55757812 143.1678125 129.87890625 143.640625 C128.2579995 144.76821231 126.62970314 145.88516391 125 147 C121.64861297 145.43975092 119.61063945 143.61063945 117 141 C112.43593501 139.478645 108.48930466 139.51484772 103.90625 141.0078125 C99.2175367 142.40931652 94.60120853 142.17952477 89.75 142.0625 C87.97403991 142.0280525 86.19798954 141.99791536 84.421875 141.97265625 C83.64424805 141.95468994 82.86662109 141.93672363 82.06542969 141.91821289 C79.80019549 141.91191068 79.80019549 141.91191068 77 143 C70.51993279 143.44369887 65.23386331 142.7811038 59 141 C52.15167162 140.07485296 52.15167162 140.07485296 45.87890625 142.37890625 C44.05492675 144.01447852 44.05492675 144.01447852 42.53515625 145.78515625 C41 147 41 147 39.19140625 146.953125 C36.0802654 145.59997283 33.58596647 143.72239007 30.875 141.6875 C29.82054688 140.90761719 28.76609375 140.12773437 27.6796875 139.32421875 C25.25997422 137.22548785 24.093744 135.95040819 23 133 C23.66 132.175 24.32 131.35 25 130.5 C26.95440565 127.49105893 27.69992377 124.87647008 27.53125 121.21484375 C26.63966239 117.49771012 24.61499413 114.54512407 22.5078125 111.39453125 C20.28370745 107.86246805 19.10714998 104.38841868 18 100.375 C17.15471123 96.91197465 17.15471123 96.91197465 15 94 C13.51858113 88.81019273 12.93758284 83.55956328 12.625 78.1875 C12.23047991 73.59554488 11.65264727 71.09070154 8 68 C5.36 66.68 2.72 65.36 0 64 C0 42.88 0 21.76 0 0 Z M77 6 C76.773125 6.86625 76.54625 7.7325 76.3125 8.625 C74.59695435 13.03640311 72.35948999 16.66389943 68.18920898 19.02539062 C66.16660037 19.89520021 64.12911019 20.67842966 62.0625 21.4375 C56.4313412 23.67190644 52.73951549 25.50834528 49.19921875 30.58984375 C48 32 48 32 44.75 32.875 C37.86410155 34.94076953 32.61079995 40.77629554 28.25 46.375 C24.16060232 51.14596396 20.19545237 52.11158529 14.125 52.6875 C12.41743713 52.80361428 10.70923212 52.91180119 9 53 C8.67 55.64 8.34 58.28 8 61 C9.093125 61.680625 10.18625 62.36125 11.3125 63.0625 C15.18550968 65.47399659 16.69720056 68.75068219 18 73 C18.63400811 76.35379899 18.88897749 79.72896824 19.171875 83.12695312 C19.64204171 87.83314109 20.52160171 92.52160171 24 96 C24.20625 97.258125 24.4125 98.51625 24.625 99.8125 C25.50152666 104.1403504 27.2197616 107.12705407 29.625 110.8125 C33.37119376 116.90298549 34.15436938 121.96141146 33 129 C32.38673824 130.68704838 31.73427782 132.36199563 31 134 C32.07107117 134.86949317 33.15745944 135.72014205 34.25 136.5625 C34.85328125 137.03816406 35.4565625 137.51382813 36.078125 138.00390625 C37.92583835 139.17786667 37.92583835 139.17786667 39.921875 138.83984375 C42.1219284 138.02973804 42.1219284 138.02973804 44.34765625 136.45703125 C47.59569451 134.67276281 49.752452 134.63107406 53.4375 134.6875 C55.07525391 134.69330078 55.07525391 134.69330078 56.74609375 134.69921875 C60.11392774 135.01053114 62.80892333 135.91935651 66 137 C68.83450659 137.31118709 68.83450659 137.31118709 71.625 137.25 C72.54539062 137.25515625 73.46578125 137.2603125 74.4140625 137.265625 C77.00441094 137.15894232 77.00441094 137.15894232 79.0859375 135.921875 C81.55693116 134.73176377 82.41333432 135.229202 85 136 C91.88391691 136.39626295 98.27200384 136.14340962 104.953125 134.4609375 C111.1140037 133.07356405 115.73918461 133.91091977 121.140625 137.125 C123.26071752 138.28386469 123.26071752 138.28386469 127 138 C130.21829104 136.07706482 130.21829104 136.07706482 133 134 C132.67 133.071875 132.34 132.14375 132 131.1875 C130.28692133 124.88083262 129.55182639 118.91481882 132.53125 112.91796875 C134.26787625 110.2027109 136.09100728 107.59568075 138 105 C139.14352916 102.71294169 139.10334439 101.40735238 139.0625 98.875 C139.0315625 96.956875 139.0315625 96.956875 139 95 C139.66 95 140.32 95 141 95 C144.55898753 89.02247398 144.96302088 83.11979118 145.640625 76.34375 C146.38193468 70.34094969 147.59256626 67.2134799 152 63 C154.8125 61.625 154.8125 61.625 157 61 C156.01 56.545 156.01 56.545 155 52 C152.7415625 52.12375 152.7415625 52.12375 150.4375 52.25 C145.38883629 52.20043388 141.85082024 51.35315067 138 48 C135.41875571 45.23857145 132.92261661 42.41204832 130.42578125 39.57421875 C126.76389388 35.68825454 123.53652843 33.21587476 118.0625 32.75 C117.381875 32.8325 116.70125 32.915 116 33 C115.835 32.278125 115.67 31.55625 115.5 30.8125 C112.8069311 25.76299582 107.6746117 23.86624729 102.72265625 21.3046875 C101.57667969 20.70914062 100.43070312 20.11359375 99.25 19.5 C98.16203125 18.9534375 97.0740625 18.406875 95.953125 17.84375 C91.17752509 14.86215852 88.80535498 11.2656187 87 6 C83.7 6 80.4 6 77 6 Z " fill="#0399DC" transform="translate(0,0)"/>
<path d="M0 0 C0 0.99 0 1.98 0 3 C4.34770216 4.44923405 8.51933333 3.91454032 13.06640625 3.7421875 C14.51853516 3.86980469 14.51853516 3.86980469 16 4 C16.66 4.99 17.32 5.98 18 7 C15.36 6.67 12.72 6.34 10 6 C12.64172312 9.60234971 14.8830696 10.3257047 19.125 11 C20.42824219 11.1546875 20.42824219 11.1546875 21.7578125 11.3125 C24 12 24 12 25.3046875 14.0625 C25.64886719 15.0215625 25.64886719 15.0215625 26 16 C24.02 15.34 22.04 14.68 20 14 C20.309375 14.639375 20.61875 15.27875 20.9375 15.9375 C22.30620182 19.88258171 22.88782981 23.82381739 23 28 C22.505 28.495 22.505 28.495 22 29 C21.63239269 31.32817964 21.29758419 33.6618385 21 36 C21.66 36 22.32 36 23 36 C23.99 37.98 24.98 39.96 26 42 C26.66 42 27.32 42 28 42 C27.67 42.99 27.34 43.98 27 45 C24.4375 46.1875 24.4375 46.1875 22 47 C22 44.36 22 41.72 22 39 C21.34 39 20.68 39 20 39 C20.05220703 40.15628906 20.05220703 40.15628906 20.10546875 41.3359375 C20.13253906 42.33882812 20.15960938 43.34171875 20.1875 44.375 C20.23970703 45.87160156 20.23970703 45.87160156 20.29296875 47.3984375 C20.19628906 48.25695312 20.09960938 49.11546875 20 50 C19.01 50.66 18.02 51.32 17 52 C16.67 51.01 16.34 50.02 16 49 C15.01 49.33 14.02 49.66 13 50 C12.67 49.34 12.34 48.68 12 48 C8.51569889 51.14653667 8.51569889 51.14653667 6.125 55.09375 C5 57 5 57 2.8359375 57.828125 C2.02382812 57.96734375 1.21171875 58.1065625 0.375 58.25 C-0.44226563 58.39953125 -1.25953125 58.5490625 -2.1015625 58.703125 C-3.04128906 58.85007812 -3.04128906 58.85007812 -4 59 C-4.33 58.34 -4.66 57.68 -5 57 C-6.81957468 56.49407771 -6.81957468 56.49407771 -9 56.1875 C-17.29257852 54.4604288 -22.96939634 50.92722179 -27.80859375 43.96484375 C-31.01007586 38.68502243 -31.36559209 34.85573377 -31.375 28.75 C-31.39949219 27.92886719 -31.42398438 27.10773438 -31.44921875 26.26171875 C-31.48272231 19.21480329 -29.69769369 13.85184761 -24.8125 8.6875 C-24.214375 8.130625 -23.61625 7.57375 -23 7 C-22.67 6.01 -22.34 5.02 -22 4 C-20.29760742 3.18457031 -20.29760742 3.18457031 -18.10546875 2.578125 C-17.31462891 2.35769531 -16.52378906 2.13726562 -15.70898438 1.91015625 C-14.87689453 1.69230469 -14.04480469 1.47445312 -13.1875 1.25 C-12.36701172 1.01667969 -11.54652344 0.78335938 -10.70117188 0.54296875 C-3.98099357 -1.27742018 -3.98099357 -1.27742018 0 0 Z " fill="#0499DA" transform="translate(84,50)"/>
<path d="M0 0 C23.76 0 47.52 0 72 0 C72 8 72 8 70.5234375 10.75 C67.19397505 13.71868479 63.70671277 15.27473996 59.625 17 C50.40475318 20.7488252 50.40475318 20.7488252 44 28 C43.13375 28.268125 42.2675 28.53625 41.375 28.8125 C34.47148782 31.24151355 30.28309572 35.64387192 25.6171875 41.12890625 C22.47690073 44.76223321 20.49606436 46.83377063 15.625 47.375 C11.81021991 46.98036758 8.63454192 46.1867892 5 45 C4.87882813 45.6290625 4.75765625 46.258125 4.6328125 46.90625 C3.57321984 52.31832326 2.38400102 57.66171034 1 63 C0.67 63 0.34 63 0 63 C0 42.21 0 21.42 0 0 Z " fill="#FDFCFC" transform="translate(0,0)"/>
<path d="M0 0 C1.65 0 3.3 0 5 0 C4.99097656 1.18335937 4.98195313 2.36671875 4.97265625 3.5859375 C5.08774721 13.56823078 5.73192865 20.50621215 13 28 C13.65742187 28.69996094 14.31484375 29.39992188 14.9921875 30.12109375 C19.93790629 34.74928585 25.37757671 36.22089138 32 37 C32.99 37.66 33.98 38.32 35 39 C35 39.66 35 40.32 35 41 C35.78246094 40.91621094 36.56492188 40.83242187 37.37109375 40.74609375 C38.88896484 40.59333984 38.88896484 40.59333984 40.4375 40.4375 C41.95150391 40.28087891 41.95150391 40.28087891 43.49609375 40.12109375 C44.32238281 40.08113281 45.14867187 40.04117188 46 40 C46.33 40.33 46.66 40.66 47 41 C48.51469448 41.23192865 50.03754562 41.41215238 51.5625 41.5625 C52.38878906 41.64628906 53.21507812 41.73007813 54.06640625 41.81640625 C54.70449219 41.87699219 55.34257813 41.93757813 56 42 C56 41.34 56 40.68 56 40 C55.01 40.495 55.01 40.495 54 41 C52.00039988 41.039992 49.99952758 41.04346799 48 41 C47.67 40.34 47.34 39.68 47 39 C47.89203125 38.79503906 48.7840625 38.59007812 49.703125 38.37890625 C50.87359375 38.10949219 52.0440625 37.84007812 53.25 37.5625 C54.41015625 37.29566406 55.5703125 37.02882812 56.765625 36.75390625 C57.83296875 36.50511719 58.9003125 36.25632813 60 36 C60.75667969 35.83757812 61.51335937 35.67515625 62.29296875 35.5078125 C64.99208305 34.70487232 66.21226871 33.13374379 68 31 C69.06011943 29.03120677 70.07470849 27.03564133 71 25 C71.33 25 71.66 25 72 25 C72 27.31 72 29.62 72 32 C74.64 30.02 77.28 28.04 80 26 C78.61951531 30.48657525 76.8194189 34.64472727 74.86328125 38.8984375 C73.88048501 41.04330876 73.88048501 41.04330876 73.625 43.6875 C72.60395583 47.46536343 70.02679078 49.63510424 67 52 C64.62468268 53.21189659 62.48832369 54.10846157 60 55 C58.95714844 55.41378906 57.91429688 55.82757813 56.83984375 56.25390625 C42.28289524 62.01432218 28.75236352 63.22365336 14 57 C7.51028294 53.71826808 1.70080629 49.49057926 -4 45 C-3.67 44.01 -3.34 43.02 -3 42 C-3.91066833 39.60794393 -3.91066833 39.60794393 -5.3125 37.125 C-7.08584033 33.80189233 -8.65597579 30.52096484 -10 27 C-8.02 27.33 -6.04 27.66 -4 28 C-3.67 26.02 -3.34 24.04 -3 22 C-2.34 22 -1.68 22 -1 22 C-0.67 19.69 -0.34 17.38 0 15 C0.66 15 1.32 15 2 15 C1.85816304 13.24967156 1.71136571 11.49974466 1.5625 9.75 C1.48128906 8.77546875 1.40007813 7.8009375 1.31640625 6.796875 C1.04925416 4.43538247 0.64628032 2.28098935 0 0 Z " fill="#088341" transform="translate(47,69)"/>
<path d="M0 0 C6.93 0 13.86 0 21 0 C21.495 3.96 21.495 3.96 22 8 C25.55299745 12.75786749 30.35140334 14.99944559 35.5625 17.5625 C40.41698198 19.96279467 44.23544043 22.03555231 48 26 C50.26027345 27.2048149 50.26027345 27.2048149 52.6875 28.1875 C58.64680197 31.02651849 62.58244865 35.1903583 67 40 C67.99405132 41.0059135 68.99281121 42.00724085 70 43 C71 44 72 45 73 46 C77.78252409 46.19130096 82.28211812 45.77026643 87 45 C89.71190018 51.19862897 91.33995394 57.20092117 91 64 C90.37351563 64.31453125 89.74703125 64.6290625 89.1015625 64.953125 C88.28429687 65.38109375 87.46703125 65.8090625 86.625 66.25 C85.81289062 66.66765625 85.00078125 67.0853125 84.1640625 67.515625 C81.65238238 69.23843808 80.96932297 70.13139447 80 73 C79.62488681 75.38683131 79.31963823 77.78509422 79.0625 80.1875 C78.35935323 86.11606239 77.19176818 91.44898913 75 97 C74.66162109 97.97453125 74.66162109 97.97453125 74.31640625 98.96875 C71.97188778 105.64466699 68.92644336 112.11033497 65 118 C64.24712813 122.59602013 64.36245833 126.63424645 67 130.5625 C67.66 131.366875 68.32 132.17125 69 133 C67.46642041 137.62233847 63.71292205 139.6356531 59.875 142.25 C59.21628906 142.70890625 58.55757812 143.1678125 57.87890625 143.640625 C56.2579995 144.76821231 54.62970314 145.88516391 53 147 C49.64861297 145.43975092 47.61063945 143.61063945 45 141 C40.43593501 139.478645 36.48930466 139.51484772 31.90625 141.0078125 C27.2175367 142.40931652 22.60120853 142.17952477 17.75 142.0625 C15.97403991 142.0280525 14.19798954 141.99791536 12.421875 141.97265625 C11.64424805 141.95468994 10.86662109 141.93672363 10.06542969 141.91821289 C7.80019549 141.91191068 7.80019549 141.91191068 5 143 C-1.48006721 143.44369887 -6.76613669 142.7811038 -13 141 C-19.84832838 140.07485296 -19.84832838 140.07485296 -26.12109375 142.37890625 C-27.94507325 144.01447852 -27.94507325 144.01447852 -29.46484375 145.78515625 C-31 147 -31 147 -32.80859375 146.953125 C-35.9197346 145.59997283 -38.41403353 143.72239007 -41.125 141.6875 C-42.17945312 140.90761719 -43.23390625 140.12773437 -44.3203125 139.32421875 C-46.74002578 137.22548785 -47.906256 135.95040819 -49 133 C-48.34 132.175 -47.68 131.35 -47 130.5 C-45.04559435 127.49105893 -44.30007623 124.87647008 -44.46875 121.21484375 C-45.36033761 117.49771012 -47.38500587 114.54512407 -49.4921875 111.39453125 C-51.71629255 107.86246805 -52.89285002 104.38841868 -54 100.375 C-54.84528877 96.91197465 -54.84528877 96.91197465 -57 94 C-58.48141887 88.81019273 -59.06241716 83.55956328 -59.375 78.1875 C-59.76952009 73.59554488 -60.34735273 71.09070154 -64 68 C-66.64 66.68 -69.28 65.36 -72 64 C-70.35 57.73 -68.7 51.46 -67 45 C-64.855 45.309375 -62.71 45.61875 -60.5 45.9375 C-55.29136662 46.35532368 -55.29136662 46.35532368 -50.46484375 44.71875 C-48.42798681 42.92914159 -46.70312716 41.1080373 -45 39 C-44.5565625 38.46246094 -44.113125 37.92492188 -43.65625 37.37109375 C-43.2540625 36.87738281 -42.851875 36.38367187 -42.4375 35.875 C-38.9991541 31.81951509 -35.50540869 28.26653284 -30.0625 27.6875 C-29.381875 27.790625 -28.70125 27.89375 -28 28 C-27.74734375 27.39800781 -27.4946875 26.79601562 -27.234375 26.17578125 C-23.30267724 19.24554184 -12.8990042 15.87817349 -5.94140625 12.61328125 C-2.78326985 11.1762451 -2.78326985 11.1762451 -1 8 C-0.67 5.36 -0.34 2.72 0 0 Z M2 3 C1.79375 4.216875 1.5875 5.43375 1.375 6.6875 C0.42251402 10.32484578 -0.78040633 12.49668471 -3.8984375 14.79296875 C-7.7289221 16.99300544 -11.81636963 18.66246859 -15.8515625 20.44921875 C-19.96890223 22.47723844 -22.80049655 24.72608949 -26 28 C-26 28.66 -26 29.32 -26 30 C-26.72574219 29.92910156 -27.45148437 29.85820312 -28.19921875 29.78515625 C-35.20028291 30.32219743 -41.01958405 37.85202497 -45.375 42.875 C-45.98085938 43.61492188 -46.58671875 44.35484375 -47.2109375 45.1171875 C-50.02043964 48.07391246 -51.93017886 48.93071107 -56.015625 49.1953125 C-57.08296875 49.17210937 -58.1503125 49.14890625 -59.25 49.125 C-60.32765625 49.10695312 -61.4053125 49.08890625 -62.515625 49.0703125 C-63.74539062 49.03550781 -63.74539062 49.03550781 -65 49 C-65.50961846 50.39235043 -66.00724909 51.78909118 -66.5 53.1875 C-66.91765625 54.35345703 -66.91765625 54.35345703 -67.34375 55.54296875 C-68.06851662 58.25652947 -68.4294547 60.21311312 -68 63 C-66.10380064 64.69428711 -66.10380064 64.69428711 -63.625 65.9375 C-60.5378341 67.61829033 -59.2468711 68.46094602 -57.765625 71.6953125 C-56.74600403 76.09632955 -56.31539026 80.49725408 -55.96484375 84.99023438 C-55.42864097 90.26626737 -53.73913011 93.47194189 -51 98 C-50.1640625 100.7734375 -50.1640625 100.7734375 -49.625 103.375 C-48.62297348 107.4726727 -47.33336257 110.24810682 -44.8125 113.625 C-42.02031036 117.50072592 -41.2716262 120.24006743 -41.5859375 124.99609375 C-42.14783266 127.71545431 -43.48777237 129.69878403 -45 132 C-45.05030843 133.97301496 -45.05030843 133.97301496 -44 136 C-41.47738705 138.23131019 -41.47738705 138.23131019 -38.4375 140.25 C-37.42558594 140.95640625 -36.41367187 141.6628125 -35.37109375 142.390625 C-34.19740234 143.18726563 -34.19740234 143.18726563 -33 144 C-32.45472656 143.566875 -31.90945312 143.13375 -31.34765625 142.6875 C-25.70076656 138.51748915 -21.96073135 136.99252573 -15 138 C-12.27463054 138.48667312 -9.55947049 139.01297705 -6.84375 139.55078125 C-1.37829429 140.41414307 4.26872943 140.58187938 9.6953125 139.42578125 C12 139 12 139 14 140 C18.72752893 140.37785082 23.31031732 140.3521434 27.875 139 C33.86013533 137.30563379 41.0992259 136.52271561 46.73828125 139.39453125 C49 141 49 141 51 143 C54.73346654 142.68346697 57.28436631 140.58368227 60.25 138.4375 C61.14203125 137.79683594 62.0340625 137.15617188 62.953125 136.49609375 C63.62859375 136.00238281 64.3040625 135.50867188 65 135 C64.53152785 132.81379664 63.99813816 130.99637542 62.97265625 129 C61.18449501 125.32313834 61.20149117 121.97479949 62 118 C63.60406191 114.85051029 65.4256888 111.92020077 67.3203125 108.9375 C69.25590626 105.5524616 69.98229964 102.62366085 70.609375 98.8203125 C71.13538903 96.36908712 72.45040039 94.93699951 74 93 C75.6135106 88.13529577 76.33741126 83.52773646 76.8125 78.4375 C77.59378303 72.25437729 78.2066364 69.01304859 83 65 C84.65565906 63.98187876 86.32080963 62.97882454 88 62 C87.69147815 60.041036 87.3780582 58.08284287 87.0625 56.125 C86.88847656 55.03445312 86.71445313 53.94390625 86.53515625 52.8203125 C86.14448841 50.06178454 86.14448841 50.06178454 85 48 C84.11957031 48.03480469 83.23914063 48.06960937 82.33203125 48.10546875 C81.17058594 48.13253906 80.00914062 48.15960938 78.8125 48.1875 C77.08966797 48.23970703 77.08966797 48.23970703 75.33203125 48.29296875 C70.80533207 47.89495886 68.35505517 46.39982572 65.2265625 43.16796875 C64.69804687 42.51441406 64.16953125 41.86085937 63.625 41.1875 C58.27700878 34.89029822 53.63043225 31.24999892 46 28 C45.28070313 27.236875 44.56140625 26.47375 43.8203125 25.6875 C39.80762509 21.86377571 35.20218441 19.8529214 30.23828125 17.48242188 C25.23842453 14.98249352 22.13775503 12.67646182 19 8 C18.505 5.525 18.505 5.525 18 3 C12.72 3 7.44 3 2 3 Z " fill="#1D1C1F" transform="translate(72,0)"/>
<path d="M0 0 C6.52956508 -0.71231619 9.61014768 0.54588874 14.82421875 4.4921875 C17.13048426 6.09042536 19.36818699 7.0505193 22 8 C22 8.33 22 8.66 22 9 C20.35 9 18.7 9 17 9 C17 9.763125 17 10.52625 17 11.3125 C17 13.20833333 17 15.10416667 17 17 C17.66 15.02 18.32 13.04 19 11 C20.79133978 10.94608007 22.58313899 10.90724429 24.375 10.875 C25.37273437 10.85179688 26.37046875 10.82859375 27.3984375 10.8046875 C30 11 30 11 32 13 C32.44921875 15.12890625 32.44921875 15.12890625 32.6875 17.5625 C32.77386719 18.36816406 32.86023438 19.17382812 32.94921875 20.00390625 C32.96597656 20.66261719 32.98273438 21.32132813 33 22 C32.505 22.495 32.505 22.495 32 23 C31.63239269 25.32817964 31.29758419 27.6618385 31 30 C31.66 30 32.32 30 33 30 C33.99 31.98 34.98 33.96 36 36 C36.66 36 37.32 36 38 36 C37.67 36.99 37.34 37.98 37 39 C34.4375 40.1875 34.4375 40.1875 32 41 C32 38.36 32 35.72 32 33 C31.34 33 30.68 33 30 33 C30.05220703 34.15628906 30.05220703 34.15628906 30.10546875 35.3359375 C30.13253906 36.33882812 30.15960938 37.34171875 30.1875 38.375 C30.23970703 39.87160156 30.23970703 39.87160156 30.29296875 41.3984375 C30.19628906 42.25695312 30.09960938 43.11546875 30 44 C29.01 44.66 28.02 45.32 27 46 C26.67 45.01 26.34 44.02 26 43 C25.01 43.33 24.02 43.66 23 44 C22.67 43.34 22.34 42.68 22 42 C20.5410574 42.47730838 19.08286504 42.95691042 17.625 43.4375 C16.81289062 43.70433594 16.00078125 43.97117188 15.1640625 44.24609375 C12.98968201 44.95179729 12.98968201 44.95179729 11 46 C5.46716979 46.36280854 2.62811169 46.25218659 -2 43 C-3.65369357 42.30177383 -5.31727014 41.62501395 -7 41 C-6.01 40.505 -6.01 40.505 -5 40 C-4.67 39.34 -4.34 38.68 -4 38 C-3.505 38.33 -3.01 38.66 -2.5 39 C2.06224735 40.82489894 7.34839376 40.55053541 12 39 C12.33 37.35 12.66 35.7 13 34 C10.03 33.34 7.06 32.68 4 32 C6 30 6 30 8 29 C8 28.34 8 27.68 8 27 C5.69 26.67 3.38 26.34 1 26 C1.99 25.67 2.98 25.34 4 25 C3.649375 24.21625 3.29875 23.4325 2.9375 22.625 C2.628125 21.75875 2.31875 20.8925 2 20 C2.33 19.34 2.66 18.68 3 18 C2.01 18.33 1.02 18.66 0 19 C-0.33 20.65 -0.66 22.3 -1 24 C-4.62233501 22.09350789 -6.49168763 20.82879293 -8 17 C-8.5878125 16.13375 -8.5878125 16.13375 -9.1875 15.25 C-10.45600833 11.73720769 -10.02038435 8.55676829 -9 5 C-7.125 2.5 -7.125 2.5 -5 1 C-4.01 1 -3.02 1 -2 1 C-2 1.66 -2 2.32 -2 3 C-1.34 3 -0.68 3 0 3 C0 2.01 0 1.02 0 0 Z " fill="#0698D9" transform="translate(74,56)"/>
<path d="M0 0 C0.33 0 0.66 0 1 0 C1 2.31 1 4.62 1 7 C3.64 5.02 6.28 3.04 9 1 C7.61951531 5.48657525 5.8194189 9.64472727 3.86328125 13.8984375 C2.88048501 16.04330876 2.88048501 16.04330876 2.625 18.6875 C1.60395583 22.46536343 -0.97320922 24.63510424 -4 27 C-6.37531732 28.21189659 -8.51167631 29.10846157 -11 30 C-12.04285156 30.41378906 -13.08570313 30.82757813 -14.16015625 31.25390625 C-28.70854162 37.01093361 -42.25733867 38.23360259 -57 32 C-71.06542056 24.80373832 -71.06542056 24.80373832 -73 19 C-71.35 17.68 -69.7 16.36 -68 15 C-63.65443451 16.59058351 -60.30212127 18.77055561 -56.57421875 21.46484375 C-50.01572685 25.37605364 -44.1413348 26.48510414 -36.5625 26.375 C-35.76779297 26.38660156 -34.97308594 26.39820312 -34.15429688 26.41015625 C-26.91954903 26.37483608 -18.6690631 24.78327199 -13 20 C-12.10792821 16.9042893 -12.10792821 16.9042893 -12 14 C-13.051875 14.495 -13.051875 14.495 -14.125 15 C-17.26003116 16.09044562 -19.70563182 16.15322643 -23 16 C-23.495 15.01 -23.495 15.01 -24 14 C-23.10796875 13.79503906 -22.2159375 13.59007813 -21.296875 13.37890625 C-20.12640625 13.10949219 -18.9559375 12.84007813 -17.75 12.5625 C-16.58984375 12.29566406 -15.4296875 12.02882813 -14.234375 11.75390625 C-13.16703125 11.50511719 -12.0996875 11.25632812 -11 11 C-10.24332031 10.83757812 -9.48664063 10.67515625 -8.70703125 10.5078125 C-6.00791695 9.70487232 -4.78773129 8.13374379 -3 6 C-1.93988057 4.03120677 -0.92529151 2.03564133 0 0 Z " fill="#E8DD02" transform="translate(118,94)"/>
<path d="M0 0 C0.66 0.99 1.32 1.98 2 3 C-2.51073055 6.38304791 -5.55614575 6.34564154 -11 6 C-12.3395251 5.69249163 -13.67522325 5.36586262 -15 5 C-16.72928837 11.91159038 -16.72928837 11.91159038 -17 19 C-15.3603125 19.86625 -15.3603125 19.86625 -13.6875 20.75 C-10.5616534 22.40139066 -8.71884228 23.87348517 -7 27 C-6.11226484 31.11065212 -5.72869413 35.2944449 -5.27148438 39.47070312 C-4.53157011 45.32434435 -3.10606377 49.00222746 0 54 C0.8359375 56.7734375 0.8359375 56.7734375 1.375 59.375 C2.37702652 63.4726727 3.66663743 66.24810682 6.1875 69.625 C8.97968964 73.50072592 9.7283738 76.24006743 9.4140625 80.99609375 C8.85216734 83.71545431 7.51222763 85.69878403 6 88 C5.98659818 89.99131453 5.98659818 89.99131453 7 92 C9.29359069 94.00495404 9.29359069 94.00495404 12.0625 95.75 C12.98160156 96.36359375 13.90070312 96.9771875 14.84765625 97.609375 C15.55792969 98.06828125 16.26820312 98.5271875 17 99 C17.54527344 98.566875 18.09054688 98.13375 18.65234375 97.6875 C19.40644531 97.130625 20.16054688 96.57375 20.9375 96 C21.66839844 95.443125 22.39929687 94.88625 23.15234375 94.3125 C30.0456128 91.13535542 38.33362356 93.32258946 45.5625 94.5 C46.47580078 94.64308594 47.38910156 94.78617187 48.33007812 94.93359375 C50.55442736 95.28296798 52.7775921 95.63851822 55 96 C55 96.33 55 96.66 55 97 C53.9275 97.144375 52.855 97.28875 51.75 97.4375 C48.24908859 97.84683883 48.24908859 97.84683883 46 98.6875 C43.428797 99.08925047 41.56399119 98.25516288 39.12109375 97.50390625 C34.7404374 96.46319784 30.43783779 96.20916293 26 97 C23.83046308 98.41039877 22.24831944 99.85291848 20.53515625 101.78515625 C19 103 19 103 17.19140625 102.953125 C14.0802654 101.59997283 11.58596647 99.72239007 8.875 97.6875 C7.82054688 96.90761719 6.76609375 96.12773437 5.6796875 95.32421875 C3.25997422 93.22548785 2.093744 91.95040819 1 89 C1.66 88.175 2.32 87.35 3 86.5 C4.95440565 83.49105893 5.69992377 80.87647008 5.53125 77.21484375 C4.63966239 73.49771012 2.61499413 70.54512407 0.5078125 67.39453125 C-1.71629255 63.86246805 -2.89285002 60.38841868 -4 56.375 C-4.84528877 52.91197465 -4.84528877 52.91197465 -7 50 C-8.48141887 44.81019273 -9.06241716 39.55956328 -9.375 34.1875 C-9.76952009 29.59554488 -10.34735273 27.09070154 -14 24 C-16.64 22.68 -19.28 21.36 -22 20 C-20.35 13.73 -18.7 7.46 -17 1 C-13.45182292 1.32552083 -9.90364583 1.65104167 -6.35546875 1.9765625 C-2.86442059 2.31441804 -2.86442059 2.31441804 0 0 Z " fill="#212225" transform="translate(22,44)"/>
<path d="M0 0 C0 0.99 0 1.98 0 3 C4.34770216 4.44923405 8.51933333 3.91454032 13.06640625 3.7421875 C14.51853516 3.86980469 14.51853516 3.86980469 16 4 C16.66 4.99 17.32 5.98 18 7 C15.36 6.67 12.72 6.34 10 6 C12.64172312 9.60234971 14.8830696 10.3257047 19.125 11 C20.42824219 11.1546875 20.42824219 11.1546875 21.7578125 11.3125 C24 12 24 12 25.3046875 14.0625 C25.64886719 15.0215625 25.64886719 15.0215625 26 16 C24.02 15.34 22.04 14.68 20 14 C19.67 15.32 19.34 16.64 19 18 C15.7 17.67 12.4 17.34 9 17 C8.67 19.97 8.34 22.94 8 26 C6.4375 24.25 6.4375 24.25 5 22 C5.25 19.9375 5.25 19.9375 6 18 C6.33 17.01 6.66 16.02 7 15 C7.99 14.67 8.98 14.34 10 14 C8.28775134 13.02636841 6.57502451 12.05356383 4.859375 11.0859375 C3 10 3 10 0.5625 8.3125 C-2.96724205 6.50458334 -6.05740887 6.33411789 -10 6 C-10 6.99 -10 7.98 -10 9 C-10.66 9 -11.32 9 -12 9 C-12 8.34 -12 7.68 -12 7 C-13.98 7.99 -15.96 8.98 -18 10 C-17.34 8.35 -16.68 6.7 -16 5 C-17.65 5 -19.3 5 -21 5 C-21.33 6.32 -21.66 7.64 -22 9 C-22.99 9 -23.98 9 -25 9 C-23.88015079 6.23987374 -22.87406877 4.41935223 -20.12939453 3.10253906 C-17.7902991 2.34394134 -15.44991006 1.71383157 -13.0625 1.125 C-12.25103516 0.90070312 -11.43957031 0.67640625 -10.60351562 0.4453125 C-6.63756731 -0.5957896 -3.99102082 -1.26729363 0 0 Z " fill="#0894D2" transform="translate(84,50)"/>
<path d="M0 0 C14.93986228 7.29701607 14.93986228 7.29701607 18 13 C18.25 16.8125 18.25 16.8125 18 20 C17.67 18.68 17.34 17.36 17 16 C14.69 16.33 12.38 16.66 10 17 C9.896875 17.928125 9.79375 18.85625 9.6875 19.8125 C8.96268632 23.17299977 8.63405622 23.97425722 6 26 C3.80859375 26.4765625 3.80859375 26.4765625 1.4375 26.625 C-1.90775258 26.82872181 -1.90775258 26.82872181 -5 28 C-7.35981813 27.06421005 -9.69631264 26.06652192 -12 25 C-11.34 24.67 -10.68 24.34 -10 24 C-9.67 23.34 -9.34 22.68 -9 22 C-8.505 22.33 -8.01 22.66 -7.5 23 C-2.93775265 24.82489894 2.34839376 24.55053541 7 23 C7.33 21.35 7.66 19.7 8 18 C5.03 17.34 2.06 16.68 -1 16 C1 14 1 14 3 13 C3 12.34 3 11.68 3 11 C0.69 10.67 -1.62 10.34 -4 10 C-3.01 9.67 -2.02 9.34 -1 9 C-1.66 7.35 -2.32 5.7 -3 4 C-2.34 3.34 -1.68 2.68 -1 2 C-0.34 3.32 0.32 4.64 1 6 C0.67 4.02 0.34 2.04 0 0 Z " fill="#20262D" transform="translate(79,72)"/>
<path d="M0 0 C6.52956508 -0.71231619 9.61014768 0.54588874 14.82421875 4.4921875 C17.13048426 6.09042536 19.36818699 7.0505193 22 8 C22 8.33 22 8.66 22 9 C20.35 9 18.7 9 17 9 C17 10.65 17 12.3 17 14 C16.608125 13.443125 16.21625 12.88625 15.8125 12.3125 C11.83653582 6.90263001 11.83653582 6.90263001 5.875 4.5 C2.67365285 5.05675603 1.92505329 5.47478304 0 8 C-0.32497864 10.11549028 -0.32497864 10.11549028 -0.125 12.375 C0.01852567 16.57825168 -0.08710486 20.17420972 -2 24 C-5.0564772 21.96234853 -6.56847797 20.37430193 -8 17 C-8.5878125 16.13375 -8.5878125 16.13375 -9.1875 15.25 C-10.45600833 11.73720769 -10.02038435 8.55676829 -9 5 C-7.125 2.5 -7.125 2.5 -5 1 C-4.01 1 -3.02 1 -2 1 C-2 1.66 -2 2.32 -2 3 C-1.34 3 -0.68 3 0 3 C0 2.01 0 1.02 0 0 Z " fill="#F2F1F1" transform="translate(74,56)"/>
<path d="M0 0 C0.66 0 1.32 0 2 0 C2.99 2.64 3.98 5.28 5 8 C7.0245494 5.9754506 8.78825195 3.69047784 10.625 1.49609375 C11.07875 1.00238281 11.5325 0.50867188 12 0 C12.33 0 12.66 0 13 0 C13.25 5.625 13.25 5.625 11 9 C10.731875 9.639375 10.46375 10.27875 10.1875 10.9375 C7.90373107 14.90404603 4.10660825 17.17484078 0 19 C1.32 19 2.64 19 4 19 C3.36328125 20.9296875 3.36328125 20.9296875 2 23 C-0.64453125 23.7578125 -0.64453125 23.7578125 -3.8125 24.125 C-7.87795281 24.61992469 -11.25190517 25.32340305 -15 27 C-15.375 23.75 -15.375 23.75 -15 20 C-12 17.5625 -12 17.5625 -9 16 C-9 16.99 -9 17.98 -9 19 C-7.68 18.34 -6.36 17.68 -5 17 C-4.67 17.99 -4.34 18.98 -4 20 C-2.26043342 18.26043342 -2.62809614 15.8063378 -2.4375 13.4375 C-2.35371094 12.42558594 -2.26992187 11.41367188 -2.18359375 10.37109375 C-2.12300781 9.58863281 -2.06242187 8.80617188 -2 8 C-1.34 8 -0.68 8 0 8 C0.33 10.31 0.66 12.62 1 15 C4.12197478 13.6910428 4.12197478 13.6910428 6 11 C5.01 11.33 4.02 11.66 3 12 C-0.42857143 4.71428571 -0.42857143 4.71428571 0 0 Z " fill="#797E1F" transform="translate(106,81)"/>
<path d="M0 0 C0.33 0 0.66 0 1 0 C1 2.31 1 4.62 1 7 C3.64 5.02 6.28 3.04 9 1 C7.61951531 5.48657525 5.8194189 9.64472727 3.86328125 13.8984375 C2.88048501 16.04330876 2.88048501 16.04330876 2.625 18.6875 C1.60350657 22.4670257 -1.15023855 24.39277144 -4 27 C-4.66 26.67 -5.32 26.34 -6 26 C-3.03 22.535 -3.03 22.535 0 19 C-1.67488528 17.26352052 -1.67488528 17.26352052 -4 16 C-7.17086167 16.85071899 -9.256414 18.17094266 -12 20 C-12 18.02 -12 16.04 -12 14 C-12.70125 14.33 -13.4025 14.66 -14.125 15 C-17.26003116 16.09044562 -19.70563182 16.15322643 -23 16 C-23.33 15.34 -23.66 14.68 -24 14 C-23.10796875 13.79503906 -22.2159375 13.59007813 -21.296875 13.37890625 C-20.12640625 13.10949219 -18.9559375 12.84007813 -17.75 12.5625 C-16.58984375 12.29566406 -15.4296875 12.02882813 -14.234375 11.75390625 C-13.16703125 11.50511719 -12.0996875 11.25632812 -11 11 C-9.86498047 10.75636719 -9.86498047 10.75636719 -8.70703125 10.5078125 C-6.00791695 9.70487232 -4.78773129 8.13374379 -3 6 C-1.93988057 4.03120677 -0.92529151 2.03564133 0 0 Z " fill="#5A7A1D" transform="translate(118,94)"/>
<path d="M0 0 C6.75 0.75 6.75 0.75 9 3 C9.165 3.845625 9.33 4.69125 9.5 5.5625 C9.665 6.366875 9.83 7.17125 10 8 C10.66 8.33 11.32 8.66 12 9 C12.33 8.34 12.66 7.68 13 7 C14.32 8.32 15.64 9.64 17 11 C15.87548273 8.0280615 14.77706209 5.66559313 13 3 C16.875 4.875 16.875 4.875 18 6 C18.22519687 7.93025889 18.44748252 9.86129442 18.62109375 11.796875 C19.06591553 14.38326141 19.96222276 16.5967264 21 19 C19.20739868 18.94004678 17.41574205 18.8512759 15.625 18.75 C14.12839844 18.68039063 14.12839844 18.68039063 12.6015625 18.609375 C10 18 10 18 8.6484375 15.953125 C8.43445313 15.30859375 8.22046875 14.6640625 8 14 C10.31 14 12.62 14 15 14 C10.94803132 12.95433066 7.22951772 12.98338235 3.0859375 13.16015625 C1 13 1 13 -2 11 C-2 10.01 -2 9.02 -2 8 C-2.66 8 -3.32 8 -4 8 C-4 7.01 -4 6.02 -4 5 C-1.69 5 0.62 5 3 5 C3 4.34 3 3.68 3 3 C2.01 2.67 1.02 2.34 0 2 C0 1.34 0 0.68 0 0 Z " fill="#62651D" transform="translate(86,42)"/>
<path d="M0 0 C0.33 1.65 0.66 3.3 1 5 C-1.05962852 5.67548578 -3.12284322 6.34004312 -5.1875 7 C-6.33605469 7.37125 -7.48460938 7.7425 -8.66796875 8.125 C-11.64320812 8.90630553 -13.95283896 9.18363306 -17 9 C-17.12181641 9.82757813 -17.12181641 9.82757813 -17.24609375 10.671875 C-18.25262129 13.78011549 -19.98359728 15.74211735 -22.0625 18.25 C-22.79597656 19.14203125 -23.52945313 20.0340625 -24.28515625 20.953125 C-24.85105469 21.62859375 -25.41695312 22.3040625 -26 23 C-27.32 22.67 -28.64 22.34 -30 22 C-29.86039609 16.41584374 -27.37478128 13.57946465 -23.88671875 9.5390625 C-22 8 -22 8 -18 8 C-18 7.01 -18 6.02 -18 5 C-16.56328432 4.35242375 -15.12559584 3.70700547 -13.6875 3.0625 C-12.88699219 2.70285156 -12.08648437 2.34320313 -11.26171875 1.97265625 C-7.29846487 0.26825173 -4.29254481 -0.09538988 0 0 Z " fill="#E2D803" transform="translate(79,45)"/>
<path d="M0 0 C0.99 0 1.98 0 3 0 C3 2.64 3 5.28 3 8 C6.96 4.535 6.96 4.535 11 1 C12.22156872 4.66470616 11.62833432 5.63237688 10.1875 9.125 C9.83042969 10.01445313 9.47335938 10.90390625 9.10546875 11.8203125 C8 14 8 14 6 15 C6.33 14.05125 6.66 13.1025 7 12.125 C8.10159191 9.22937548 8.10159191 9.22937548 8 7 C7.38125 7.66 6.7625 8.32 6.125 9 C4 11 4 11 2 11 C1.505 8.525 1.505 8.525 1 6 C0.52820313 6.81404297 0.52820313 6.81404297 0.046875 7.64453125 C-4.20386643 14.75043937 -4.20386643 14.75043937 -8 17 C-8 16.34 -8 15.68 -8 15 C-9.2684375 15.4640625 -9.2684375 15.4640625 -10.5625 15.9375 C-14.04680608 17.01446733 -17.39471328 17.50515672 -21 18 C-21.33 18.33 -21.66 18.66 -22 19 C-19.36 19 -16.72 19 -14 19 C-14 19.66 -14 20.32 -14 21 C-15.47906892 21.02689216 -16.95827483 21.04634621 -18.4375 21.0625 C-19.67306641 21.07990234 -19.67306641 21.07990234 -20.93359375 21.09765625 C-23 21 -23 21 -24 20 C-25.85287502 19.92773498 -27.70833878 19.9161878 -29.5625 19.9375 C-30.57441406 19.94652344 -31.58632812 19.95554687 -32.62890625 19.96484375 C-33.41136719 19.97644531 -34.19382812 19.98804687 -35 20 C-35 19.34 -35 18.68 -35 18 C-31.535 17.505 -31.535 17.505 -28 17 C-27.67 15.68 -27.34 14.36 -27 13 C-26.01 14.32 -25.02 15.64 -24 17 C-23.01 16.34 -22.02 15.68 -21 15 C-17.88322584 14.39184894 -14.7640472 13.98509986 -11.6171875 13.5625 C-10.75351563 13.376875 -9.88984375 13.19125 -9 13 C-8.67 12.34 -8.34 11.68 -8 11 C-9.32 10.67 -10.64 10.34 -12 10 C-11.21753906 9.44570312 -10.43507813 8.89140625 -9.62890625 8.3203125 C-8.61699219 7.59585938 -7.60507813 6.87140625 -6.5625 6.125 C-5.04849609 5.04605469 -5.04849609 5.04605469 -3.50390625 3.9453125 C-0.94203753 2.2440274 -0.94203753 2.2440274 0 0 Z " fill="#0B492C" transform="translate(117,90)"/>
<path d="M0 0 C0.66 0.33 1.32 0.66 2 1 C2.625 4.0625 2.625 4.0625 3 7 C5.97 7 8.94 7 12 7 C10.71034824 8.37562854 9.37310707 9.70766393 8 11 C7.34 11 6.68 11 6 11 C6.66 13.97 7.32 16.94 8 20 C7.29875 19.484375 6.5975 18.96875 5.875 18.4375 C2.34474904 16.67237452 0.75560906 17.0202759 -3 18 C-3.99 18.33 -4.98 18.66 -6 19 C-5.67 16.69 -5.34 14.38 -5 12 C-5.99 11.360625 -6.98 10.72125 -8 10.0625 C-8.99 9.381875 -9.98 8.70125 -11 8 C-11 7.67 -11 7.34 -11 7 C-8.03 7 -5.06 7 -2 7 C-1.34 4.69 -0.68 2.38 0 0 Z " fill="#EADD02" transform="translate(81,18)"/>
<path d="M0 0 C3.82108796 0.90978285 4.78194445 1.67291667 7 5 C1.00533211 12.41445765 -7.78463929 17.68864424 -17.12890625 19.66015625 C-19.43950876 19.89351724 -21.67935936 20.03742969 -24 20 C-23.67 19.34 -23.34 18.68 -23 18 C-22.34 18 -21.68 18 -21 18 C-20.67 17.34 -20.34 16.68 -20 16 C-20 16.66 -20 17.32 -20 18 C-19.01 18 -18.02 18 -17 18 C-17 17.34 -17 16.68 -17 16 C-16.278125 15.87625 -15.55625 15.7525 -14.8125 15.625 C-12.01799416 15.0039987 -9.58740955 14.22183229 -7 13 C-6.67 12.34 -6.34 11.68 -6 11 C-4.66666667 10.66666667 -3.33333333 10.33333333 -2 10 C-1.67 9.34 -1.34 8.68 -1 8 C-0.01 7.67 0.98 7.34 2 7 C2 5.68 2 4.36 2 3 C-1.27773504 3.75150023 -1.27773504 3.75150023 -3 7 C-3 7.99 -3 8.98 -3 10 C-3.66 10 -4.32 10 -5 10 C-5 9.34 -5 8.68 -5 8 C-8.04134491 9.66924071 -8.04134491 9.66924071 -9 12 C-9.99 12 -10.98 12 -12 12 C-14.3618403 12.37070502 -16.71568499 12.79374227 -19.0625 13.25 C-20.31160156 13.48203125 -21.56070313 13.7140625 -22.84765625 13.953125 C-26.09222533 14.67609975 -26.09222533 14.67609975 -27.43359375 17.109375 C-27.62050781 17.73328125 -27.80742188 18.3571875 -28 19 C-28 17.02 -28 15.04 -28 13 C-27.10539062 12.78085938 -26.21078125 12.56171875 -25.2890625 12.3359375 C-16.51605786 10.03512818 -8.99340756 7.07794951 -1.890625 1.27734375 C-1.26671875 0.85582031 -0.6428125 0.43429688 0 0 Z " fill="#F1E601" transform="translate(112,109)"/>
<path d="M0 0 C1.65 0 3.3 0 5 0 C4.99097656 1.18335937 4.98195313 2.36671875 4.97265625 3.5859375 C5.09334444 13.86509232 6.06132571 20.01972333 13 28 C14.22265625 30.2578125 14.22265625 30.2578125 15 32 C13.68 32.66 12.36 33.32 11 34 C4.65679626 27.83299637 1.44509469 23.72761133 0 15 C0.66 15 1.32 15 2 15 C1.85816304 13.24967156 1.71136571 11.49974466 1.5625 9.75 C1.48128906 8.77546875 1.40007813 7.8009375 1.31640625 6.796875 C1.04925416 4.43538247 0.64628032 2.28098935 0 0 Z " fill="#C3B908" transform="translate(47,69)"/>
<path d="M0 0 C0.99 0.33 1.98 0.66 3 1 C3.125 7.75 3.125 7.75 2 10 C1.95977609 12.3329866 1.95679753 14.66706666 2 17 C2.103125 15.906875 2.20625 14.81375 2.3125 13.6875 C2.97307727 10.14440371 3.2027092 9.06756277 6 7 C7.42662219 9.85324437 7.31033868 11.83454549 7 15 C5.1875 17.875 5.1875 17.875 3 20 C2.01 20 1.02 20 0 20 C-0.33 17.69 -0.66 15.38 -1 13 C-1 13.66 -1 14.32 -1 15 C-1 17 -1 19 -1 21 C-1.66 21 -2.32 21 -3 21 C-3.33 20.34 -3.66 19.68 -4 19 C-4.99 19 -5.98 19 -7 19 C-7.06058594 18.33613281 -7.12117188 17.67226562 -7.18359375 16.98828125 C-7.79863507 10.45091919 -7.79863507 10.45091919 -9 4 C-6.04590299 5.37154504 -3.55991624 6.98863724 -1 9 C-0.67 6.03 -0.34 3.06 0 0 Z " fill="#1D3237" transform="translate(113,60)"/>
<path d="M0 0 C0 0.99 0 1.98 0 3 C0.804375 3.28875 1.60875 3.5775 2.4375 3.875 C5 5 5 5 6 7 C5.67 7.99 5.34 8.98 5 10 C4.38125 9.71125 3.7625 9.4225 3.125 9.125 C-1.15866124 7.58288195 -5.52928212 6.81601453 -10 6 C-10 6.99 -10 7.98 -10 9 C-10.66 9 -11.32 9 -12 9 C-12 8.34 -12 7.68 -12 7 C-13.98 7.99 -15.96 8.98 -18 10 C-17.34 8.35 -16.68 6.7 -16 5 C-17.65 5 -19.3 5 -21 5 C-21.33 6.32 -21.66 7.64 -22 9 C-22.99 9 -23.98 9 -25 9 C-23.88015079 6.23987374 -22.87406877 4.41935223 -20.12939453 3.10253906 C-17.7902991 2.34394134 -15.44991006 1.71383157 -13.0625 1.125 C-12.25103516 0.90070312 -11.43957031 0.67640625 -10.60351562 0.4453125 C-6.63756731 -0.5957896 -3.99102082 -1.26729363 0 0 Z " fill="#188BBE" transform="translate(84,50)"/>
<path d="M0 0 C-0.66 0.33 -1.32 0.66 -2 1 C-1.505 2.485 -1.505 2.485 -1 4 C-2.44632813 4.19916016 -2.44632813 4.19916016 -3.921875 4.40234375 C-5.18515625 4.57894531 -6.4484375 4.75554687 -7.75 4.9375 C-9.62945312 5.19853516 -9.62945312 5.19853516 -11.546875 5.46484375 C-14.80140436 5.90976595 -14.80140436 5.90976595 -17.14453125 6.55859375 C-21.79505826 7.66492965 -27.09715117 7.38921908 -31.75 6.4375 C-34.68535444 5.86673664 -37.09758092 6.39251694 -40 7 C-39.34 6.67 -38.68 6.34 -38 6 C-38 5.01 -38 4.02 -38 3 C-36.25 1.9375 -36.25 1.9375 -34 1 C-32.66510757 1.32703378 -31.33209782 1.66176299 -30 2 C-23.1378937 2.39500746 -16.72857589 2.19413477 -10.078125 0.4453125 C-6.69239734 -0.28020057 -3.44983738 -0.12544863 0 0 Z " fill="#0593D2" transform="translate(115,133)"/>
<path d="M0 0 C1.21710526 6.32894737 1.21710526 6.32894737 0.3125 9.125 C-2.23557533 12.76510762 -6.8375554 13.18324125 -11 14 C-13.73048647 14.20566164 -16.25728947 14.15237281 -19 14 C-19.66 12.68 -20.32 11.36 -21 10 C-19.96939453 9.96132812 -19.96939453 9.96132812 -18.91796875 9.921875 C-18.01691406 9.86515625 -17.11585937 9.8084375 -16.1875 9.75 C-15.29417969 9.70359375 -14.40085937 9.6571875 -13.48046875 9.609375 C-10.86741337 9.20664131 -10.86741337 9.20664131 -9.2109375 7.08984375 C-8.01758747 5.03035257 -7.55317043 3.29170608 -7 1 C-4.53721199 -0.231394 -2.7204945 -0.07159196 0 0 Z " fill="#426172" transform="translate(96,88)"/>
<path d="M0 0 C0.99 0 1.98 0 3 0 C3.33 1.32 3.66 2.64 4 4 C3.360625 4.103125 2.72125 4.20625 2.0625 4.3125 C1.0415625 4.6528125 1.0415625 4.6528125 0 5 C-0.33 5.99 -0.66 6.98 -1 8 C-2.32 8 -3.64 8 -5 8 C-5.33 8.99 -5.66 9.98 -6 11 C-11.02715283 14.12800621 -11.02715283 14.12800621 -14.375 13.6875 C-14.91125 13.460625 -15.4475 13.23375 -16 13 C-16 13.66 -16 14.32 -16 15 C-20.455 15.495 -20.455 15.495 -25 16 C-25 14.35 -25 12.7 -25 11 C-24.02417969 10.79503906 -23.04835938 10.59007813 -22.04296875 10.37890625 C-20.77066406 10.10949219 -19.49835938 9.84007813 -18.1875 9.5625 C-16.92292969 9.29566406 -15.65835938 9.02882813 -14.35546875 8.75390625 C-11.02954587 8.06572114 -11.02954587 8.06572114 -8 7 C-7.67 6.34 -7.34 5.68 -7 5 C-6.01 5 -5.02 5 -4 5 C-4 5.66 -4 6.32 -4 7 C-3.34 6.34 -2.68 5.68 -2 5 C-2.33 4.34 -2.66 3.68 -3 3 C-2.34 3 -1.68 3 -1 3 C-0.67 2.01 -0.34 1.02 0 0 Z " fill="#998F0C" transform="translate(111,112)"/>
<path d="M0 0 C3.43861544 1.25803004 6.17933742 2.71335407 9.125 4.875 C15.66834941 9.34282956 23.09829217 12.14576132 31 13 C31 13.33 31 13.66 31 14 C28.36 14.33 25.72 14.66 23 15 C23 15.66 23 16.32 23 17 C22.34 17 21.68 17 21 17 C21 15.68 21 14.36 21 13 C20.01 13.33 19.02 13.66 18 14 C18 13.34 18 12.68 18 12 C15.525 11.505 15.525 11.505 13 11 C12.67 11.99 12.34 12.98 12 14 C11.67 12.68 11.34 11.36 11 10 C10.195625 9.87625 9.39125 9.7525 8.5625 9.625 C7.716875 9.41875 6.87125 9.2125 6 9 C5.67 8.34 5.34 7.68 5 7 C4.01 7 3.02 7 2 7 C1.67 5.68 1.34 4.36 1 3 C0.34 3.66 -0.32 4.32 -1 5 C0.72226496 8.24849977 0.72226496 8.24849977 4 9 C4 9.66 4 10.32 4 11 C-0.24822374 10.52797514 -2.19989709 8.03344482 -5 5 C-3.35 3.35 -1.7 1.7 0 0 Z " fill="#F0E501" transform="translate(50,109)"/>
<path d="M0 0 C0.495 1.485 0.495 1.485 1 3 C0.35933594 2.97679687 -0.28132813 2.95359375 -0.94140625 2.9296875 C-1.80636719 2.91164062 -2.67132813 2.89359375 -3.5625 2.875 C-4.40941406 2.85179687 -5.25632813 2.82859375 -6.12890625 2.8046875 C-9.09993035 2.89432871 -9.09993035 2.89432871 -12.19921875 4.00390625 C-16.98320641 5.25767486 -21.33494478 5.18106493 -26.25 5.0625 C-28.02596009 5.0280525 -29.80201046 4.99791536 -31.578125 4.97265625 C-32.35575195 4.95468994 -33.13337891 4.93672363 -33.93457031 4.91821289 C-36.19980451 4.91191068 -36.19980451 4.91191068 -39 6 C-41.33299825 6.03954234 -43.66708189 6.04401732 -46 6 C-46.33 5.34 -46.66 4.68 -47 4 C-46.33613281 3.86722656 -45.67226562 3.73445312 -44.98828125 3.59765625 C-43.66376953 3.33275391 -43.66376953 3.33275391 -42.3125 3.0625 C-40.54166667 2.70833333 -38.77083333 2.35416667 -37 2 C-36.10667969 1.79246094 -35.21335937 1.58492187 -34.29296875 1.37109375 C-32 1 -32 1 -30 2 C-25.27247107 2.37785082 -20.68968268 2.3521434 -16.125 1 C-10.84570111 -0.5425112 -5.44811149 -0.16344334 0 0 Z " fill="#1D1B1D" transform="translate(116,137)"/>
<path d="M0 0 C0.33 0 0.66 0 1 0 C1 2.31 1 4.62 1 7 C3.64 5.02 6.28 3.04 9 1 C7.51194289 6.80342274 4.40902445 11.17590879 1 16 C-1.79782181 15.11647732 -3.59395131 14.49024252 -5.48828125 12.203125 C-6 10 -6 10 -4.91796875 7.421875 C-4.34691406 6.54015625 -3.77585937 5.6584375 -3.1875 4.75 C-2.62417969 3.85796875 -2.06085938 2.9659375 -1.48046875 2.046875 C-0.99191406 1.37140625 -0.50335938 0.6959375 0 0 Z " fill="#F1E501" transform="translate(118,94)"/>
<path d="M0 0 C2.91488977 2.6234008 4.88503898 5.71816394 7 9 C6.3125 10.875 6.3125 10.875 5 13 C3.35619011 13.7211874 1.68967412 14.39401025 0 15 C-1.15330947 13.42210402 -2.29737927 11.8374518 -3.4375 10.25 C-4.07558594 9.36828125 -4.71367188 8.4865625 -5.37109375 7.578125 C-6.8275081 5.27300875 -7.55931821 3.65650428 -8 1 C-5.04590299 2.37154504 -2.55991624 3.98863724 0 6 C0 4.02 0 2.04 0 0 Z " fill="#E9DC02" transform="translate(45,95)"/>
<path d="M0 0 C0.66 0 1.32 0 2 0 C2 0.99 2 1.98 2 3 C1.37351563 3.31453125 0.74703125 3.6290625 0.1015625 3.953125 C-0.71570313 4.38109375 -1.53296875 4.8090625 -2.375 5.25 C-3.18710938 5.66765625 -3.99921875 6.0853125 -4.8359375 6.515625 C-7.3525777 8.2418403 -8.02860771 9.12507131 -9 12 C-9.39798258 14.44869838 -9.72441793 16.90952471 -10 19.375 C-10.54024883 24.18900293 -11.31060225 28.4527044 -13 33 C-13.66 33 -14.32 33 -15 33 C-14.45994089 28.31757259 -13.88672494 23.64189887 -13.26025391 18.97021484 C-13.0480215 17.36353986 -12.8551531 15.75431667 -12.66796875 14.14453125 C-11.84509204 8.89077995 -9.96881426 6.34249441 -5.8515625 2.99609375 C-4 2 -4 2 0 2 C0 1.34 0 0.68 0 0 Z " fill="#191718" transform="translate(161,61)"/>
<path d="M0 0 C1.36995117 0.21462891 1.36995117 0.21462891 2.76757812 0.43359375 C4.99192736 0.78296798 7.2150921 1.13851822 9.4375 1.5 C9.4375 1.83 9.4375 2.16 9.4375 2.5 C7.82875 2.7165625 7.82875 2.7165625 6.1875 2.9375 C2.68658859 3.34683883 2.68658859 3.34683883 0.4375 4.1875 C-2.10871332 4.58534583 -3.88644819 3.76478455 -6.2890625 2.97265625 C-10.40545646 2.11684239 -14.58752974 2.47100225 -18.76953125 2.625 C-21.5625 2.5 -21.5625 2.5 -23.5625 0.5 C-16.40407695 -3.5475898 -7.74931813 -1.26217801 0 0 Z " fill="#1D2C37" transform="translate(67.5625,138.5)"/>
<path d="M0 0 C0.66 0 1.32 0 2 0 C2.99 2.64 3.98 5.28 5 8 C7.0245494 5.9754506 8.78825195 3.69047784 10.625 1.49609375 C11.07875 1.00238281 11.5325 0.50867188 12 0 C12.33 0 12.66 0 13 0 C13.25 5.625 13.25 5.625 11 9 C11 9.66 11 10.32 11 11 C8.36 11.33 5.72 11.66 3 12 C-0.42857143 4.71428571 -0.42857143 4.71428571 0 0 Z " fill="#314D23" transform="translate(106,81)"/>
<path d="M0 0 C3.96 0.99 3.96 0.99 8 2 C8 3.32 8 4.64 8 6 C8.66 6 9.32 6 10 6 C9.67 5.01 9.34 4.02 9 3 C16.42857143 2.85714286 16.42857143 2.85714286 20 4 C19.67 5.32 19.34 6.64 19 8 C10.95579637 8.15772948 5.10880061 6.68604476 -2 3 C-1.34 2.01 -0.68 1.02 0 0 Z " fill="#776D10" transform="translate(63,120)"/>
<path d="M0 0 C0.99 0 1.98 0 3 0 C3 2.64 3 5.28 3 8 C6.96 4.535 6.96 4.535 11 1 C12.22156872 4.66470616 11.62833432 5.63237688 10.1875 9.125 C9.83042969 10.01445313 9.47335938 10.90390625 9.10546875 11.8203125 C8 14 8 14 6 15 C6.33 14.05125 6.66 13.1025 7 12.125 C8.10159191 9.22937548 8.10159191 9.22937548 8 7 C7.071875 7.99 7.071875 7.99 6.125 9 C4 11 4 11 2 11 C1.67 9.35 1.34 7.7 1 6 C-0.485 8.475 -0.485 8.475 -2 11 C-2.33 10.34 -2.66 9.68 -3 9 C-2.0625 6.875 -2.0625 6.875 -1 5 C-1.66 4.67 -2.32 4.34 -3 4 C-1.6875 2 -1.6875 2 0 0 Z " fill="#1D251A" transform="translate(117,90)"/>
<path d="M0 0 C1.33333333 2 2.66666667 4 4 6 C4.66 6 5.32 6 6 6 C5.67 6.99 5.34 7.98 5 9 C2.4375 10.1875 2.4375 10.1875 0 11 C0 8.36 0 5.72 0 3 C-0.66 3 -1.32 3 -2 3 C-1.96519531 3.77085938 -1.93039063 4.54171875 -1.89453125 5.3359375 C-1.86746094 6.33882813 -1.84039062 7.34171875 -1.8125 8.375 C-1.77769531 9.37273437 -1.74289063 10.37046875 -1.70703125 11.3984375 C-1.80371094 12.25695312 -1.90039062 13.11546875 -2 14 C-2.99 14.66 -3.98 15.32 -5 16 C-5.33 15.01 -5.66 14.02 -6 13 C-6.99 13.495 -6.99 13.495 -8 14 C-7.71125 13.43667969 -7.4225 12.87335938 -7.125 12.29296875 C-5.61960598 9.22468301 -4.32044145 6.07730362 -3 2.92578125 C-2 1 -2 1 0 0 Z " fill="#354F3F" transform="translate(106,86)"/>
<path d="M0 0 C0.66 0 1.32 0 2 0 C2.45375 0.94875 2.9075 1.8975 3.375 2.875 C4.80238254 6.00313679 4.80238254 6.00313679 7 8 C6.34 8 5.68 8 5 8 C5.020625 9.11375 5.04125 10.2275 5.0625 11.375 C5 15 5 15 4 17 C0.83884224 15.63016497 0.0072908 15.0109362 -2 12 C-1.01 12 -0.02 12 1 12 C-0.65376711 10.34623289 -2.80948364 10.36528792 -5.0625 9.9375 C-5.98160156 9.76089844 -6.90070313 9.58429687 -7.84765625 9.40234375 C-8.55792969 9.26957031 -9.26820312 9.13679688 -10 9 C-6.34811918 7.92825237 -3.73567172 8.23588533 0 9 C-0.33 7.02 -0.66 5.04 -1 3 C1 5 1 5 1.125 7.625 C1.08375 8.40875 1.0425 9.1925 1 10 C1.66 10 2.32 10 3 10 C2.05066101 6.64566891 1.10251165 3.30753495 0 0 Z " fill="#1B4632" transform="translate(108,52)"/>
<path d="M0 0 C6.75 0.75 6.75 0.75 9 3 C9.33 4.98 9.66 6.96 10 9 C5.38 8.34 0.76 7.68 -4 7 C-4 6.34 -4 5.68 -4 5 C-1.69 5 0.62 5 3 5 C3 4.34 3 3.68 3 3 C2.01 2.67 1.02 2.34 0 2 C0 1.34 0 0.68 0 0 Z " fill="#758314" transform="translate(86,42)"/>
<path d="M0 0 C2.98401081 0.98432452 5.95403868 1.9830506 8.90234375 3.0703125 C20.24532905 7.0118904 31.22941138 6.65201244 43 5 C39.38508977 7.40994015 36.40429344 7.75176686 32.1796875 8.4375 C31.46039063 8.623125 30.74109375 8.80875 30 9 C29.67 9.66 29.34 10.32 29 11 C28.01 10.67 27.02 10.34 26 10 C24.04912354 9.5793036 22.09813525 9.15910912 20.14624023 8.74316406 C12.75657689 7.138615 6.30423405 5.38243051 0 1 C0 0.67 0 0.34 0 0 Z " fill="#153020" transform="translate(55,123)"/>
<path d="M0 0 C1.98 0.495 1.98 0.495 4 1 C4 1.66 4 2.32 4 3 C4.804375 3.2475 5.60875 3.495 6.4375 3.75 C9 5 9 5 9.8125 7.125 C9.874375 7.74375 9.93625 8.3625 10 9 C8.02 9.66 6.04 10.32 4 11 C0.38860104 7.21243523 0.38860104 7.21243523 -1 5 C-0.8125 2.125 -0.8125 2.125 0 0 Z " fill="#EFEFEF" transform="translate(84,77)"/>
<path d="M0 0 C4.97144319 1.05129866 9.16181386 3.52350044 13.625 5.875 C14.93210937 6.54595703 14.93210937 6.54595703 16.265625 7.23046875 C17.09835938 7.66746094 17.93109375 8.10445312 18.7890625 8.5546875 C19.54912598 8.95155762 20.30918945 9.34842773 21.09228516 9.75732422 C23 11 23 11 25 14 C20.01421452 12.48156612 15.46660206 10.4327483 10.8125 8.125 C10.10158203 7.78597656 9.39066406 7.44695313 8.65820312 7.09765625 C4.88380434 5.22998573 2.18646977 3.76511783 0 0 Z " fill="#141113" transform="translate(93,11)"/>
<path d="M0 0 C1.56079778 3.58721171 2.47490848 6.958386 3.125 10.8125 C3.29257813 11.78832031 3.46015625 12.76414062 3.6328125 13.76953125 C3.75398437 14.50558594 3.87515625 15.24164063 4 16 C3.34 16 2.68 16 2 16 C2 16.66 2 17.32 2 18 C1.34 17.67 0.68 17.34 0 17 C-0.46806645 14.66255706 -0.82669794 12.30260921 -1.125 9.9375 C-1.29257813 8.64714844 -1.46015625 7.35679688 -1.6328125 6.02734375 C-1.75398437 5.02832031 -1.87515625 4.02929688 -2 3 C-3.65 3.33 -5.3 3.66 -7 4 C-7 3.01 -7 2.02 -7 1 C-4.53721199 -0.231394 -2.7204945 -0.07159196 0 0 Z " fill="#312927" transform="translate(159,45)"/>
<path d="M0 0 C1.91752953 0.06029967 3.83417426 0.14916707 5.75 0.25 C7.35101563 0.31960937 7.35101563 0.31960937 8.984375 0.390625 C12.52405508 1.10589714 13.73881962 2.25584905 16 5 C13.6603331 6.16983345 12.16608473 6.1661241 9.5625 6.1875 C8.38880859 6.20876953 8.38880859 6.20876953 7.19140625 6.23046875 C5 6 5 6 2 4 C2 3.01 2 2.02 2 1 C1.34 0.67 0.68 0.34 0 0 Z " fill="#4C7856" transform="translate(82,49)"/>
<path d="M0 0 C5.05255964 0.63156995 9.29593201 2.13459373 14 4 C14 5.65 14 7.3 14 9 C13.01 9 12.02 9 11 9 C11 8.01 11 7.02 11 6 C10.071875 5.87625 9.14375 5.7525 8.1875 5.625 C5 5 5 5 2 3 C2.33 3.33 2.66 3.66 3 4 C3.33 4.66 3.66 5.32 4 6 C1.525 5.01 1.525 5.01 -1 4 C-0.67 2.68 -0.34 1.36 0 0 Z " fill="#E3D802" transform="translate(62,102)"/>
<path d="M0 0 C0.66 0.99 1.32 1.98 2 3 C-5.81451617 8.04109707 -13.38675573 12.73948033 -23 12 C-22.67 11.34 -22.34 10.68 -22 10 C-21.34 10 -20.68 10 -20 10 C-19.67 9.34 -19.34 8.68 -19 8 C-19 8.66 -19 9.32 -19 10 C-18.01 10 -17.02 10 -16 10 C-16 9.34 -16 8.68 -16 8 C-15.278125 7.87625 -14.55625 7.7525 -13.8125 7.625 C-11.01799416 7.0039987 -8.58740955 6.22183229 -6 5 C-5.67 4.34 -5.34 3.68 -5 3 C-3.66666667 2.66666667 -2.33333333 2.33333333 -1 2 C-0.67 1.34 -0.34 0.68 0 0 Z " fill="#E1D603" transform="translate(111,117)"/>
<path d="M0 0 C0.99 0 1.98 0 3 0 C3.33 1.32 3.66 2.64 4 4 C3.360625 4.103125 2.72125 4.20625 2.0625 4.3125 C1.381875 4.539375 0.70125 4.76625 0 5 C-0.33 5.99 -0.66 6.98 -1 8 C-2.32 8 -3.64 8 -5 8 C-5.33 8.99 -5.66 9.98 -6 11 C-8.0625 11.6875 -8.0625 11.6875 -10 12 C-10 10.35 -10 8.7 -10 7 C-9.34 7 -8.68 7 -8 7 C-7.67 6.34 -7.34 5.68 -7 5 C-6.01 5 -5.02 5 -4 5 C-4 5.66 -4 6.32 -4 7 C-3.34 6.34 -2.68 5.68 -2 5 C-2.33 4.34 -2.66 3.68 -3 3 C-2.34 3 -1.68 3 -1 3 C-0.67 2.01 -0.34 1.02 0 0 Z " fill="#8E830D" transform="translate(111,112)"/>
<path d="M0 0 C1.875 0.625 1.875 0.625 4 2 C5.1875 5 5.1875 5 6 8 C6.33 8.66 6.66 9.32 7 10 C6.443125 9.71125 5.88625 9.4225 5.3125 9.125 C2.91505355 7.9586747 0.48403061 6.9660119 -2 6 C-4.87420123 8.71604715 -4.87420123 8.71604715 -7 12 C-9 9 -9 9 -9 6 C-8.67 5.34 -8.34 4.68 -8 4 C-7.01 4.33 -6.02 4.66 -5 5 C-3.35 3.35 -1.7 1.7 0 0 Z " fill="#444416" transform="translate(52,104)"/>
<path d="M0 0 C-0.58172725 3.9520518 -2.55157741 6.22095053 -5.0625 9.25 C-5.79597656 10.14203125 -6.52945313 11.0340625 -7.28515625 11.953125 C-7.85105469 12.62859375 -8.41695312 13.3040625 -9 14 C-10.32 13.67 -11.64 13.34 -13 13 C-12.67 12.01 -12.34 11.02 -12 10 C-11.34 10.33 -10.68 10.66 -10 11 C-9.7525 10.278125 -9.505 9.55625 -9.25 8.8125 C-7.40916849 4.6706291 -5.01715322 0 0 0 Z " fill="#EADF02" transform="translate(62,54)"/>
<path d="M0 0 C1.93166016 0.01740234 1.93166016 0.01740234 3.90234375 0.03515625 C5.19269531 0.04417969 6.48304688 0.05320313 7.8125 0.0625 C8.81152344 0.07410156 9.81054688 0.08570313 10.83984375 0.09765625 C11.49984375 2.40765625 12.15984375 4.71765625 12.83984375 7.09765625 C10.83984375 6.09765625 10.83984375 6.09765625 9.83984375 3.09765625 C8.84984375 2.76765625 7.85984375 2.43765625 6.83984375 2.09765625 C6.83984375 2.75765625 6.83984375 3.41765625 6.83984375 4.09765625 C4.3193078 5.35792423 2.98563395 5.0164007 0.21484375 4.66015625 C-1.01105469 4.50740234 -1.01105469 4.50740234 -2.26171875 4.3515625 C-3.20144531 4.22587891 -3.20144531 4.22587891 -4.16015625 4.09765625 C-4.16015625 -0.03178644 -4.14653035 0.12813753 0 0 Z " fill="#068ECB" transform="translate(146.16015625,47.90234375)"/>
<path d="M0 0 C4.62 0 9.24 0 14 0 C14 0.33 14 0.66 14 1 C12.35 1 10.7 1 9 1 C10.3089572 4.12197478 10.3089572 4.12197478 13 6 C13.33 6.99 13.66 7.98 14 9 C9.05 9 4.1 9 -1 9 C-1 8.67 -1 8.34 -1 8 C1.64 7.67 4.28 7.34 7 7 C6.2236068 3.9254644 6.2236068 3.9254644 4 2 C2.68 1.34 1.36 0.68 0 0 Z " fill="#CCC006" transform="translate(75,121)"/>
<path d="M0 0 C0.33 0.66 0.66 1.32 1 2 C1.66 2.33 2.32 2.66 3 3 C2.34 3 1.68 3 1 3 C1 3.66 1 4.32 1 5 C2.32 4.67 3.64 4.34 5 4 C5.33 4.66 5.66 5.32 6 6 C7.64363134 6.72159424 9.31050386 7.39351421 11 8 C10.34 9.32 9.68 10.64 9 12 C7.02 11.01 5.04 10.02 3 9 C3 8.34 3 7.68 3 7 C1.68 6.67 0.36 6.34 -1 6 C-1 5.34 -1 4.68 -1 4 C-1.66 3.67 -2.32 3.34 -3 3 C-2.01 2.01 -1.02 1.02 0 0 Z " fill="#7E730F" transform="translate(51,111)"/>
<path d="M0 0 C0.66 0.33 1.32 0.66 2 1 C2 1.66 2 2.32 2 3 C2.99 3 3.98 3 5 3 C6.125 5.25 6.125 5.25 7 8 C6.08659568 10.74021297 5.60070695 11.69964653 3 13 C2.01 9.7 1.02 6.4 0 3 C-0.66 3 -1.32 3 -2 3 C-2 4.65 -2 6.3 -2 8 C-2.33 8 -2.66 8 -3 8 C-3 5.69 -3 3.38 -3 1 C-2.01 0.67 -1.02 0.34 0 0 Z " fill="#155877" transform="translate(108,78)"/>
<path d="M0 0 C1.88671875 0.26171875 1.88671875 0.26171875 4 1 C5.08203125 2.70703125 5.08203125 2.70703125 5.8125 4.8125 C6.19341797 5.84310547 6.19341797 5.84310547 6.58203125 6.89453125 C7.06817513 9.34342427 6.95461043 10.69627177 6 13 C2.9375 14.75 2.9375 14.75 0 16 C0 13 0 13 1 11 C1.99 11 2.98 11 4 11 C3.34 8.03 2.68 5.06 2 2 C1.34 2 0.68 2 0 2 C0 1.34 0 0.68 0 0 Z " fill="#019EE4" transform="translate(153,50)"/>
<path d="M0 0 C-1.40815374 3.4030382 -2.81432567 5.13107106 -6 7 C-9.234375 7.29296875 -9.234375 7.29296875 -12.75 7.1875 C-13.92046875 7.16042969 -15.0909375 7.13335937 -16.296875 7.10546875 C-17.18890625 7.07066406 -18.0809375 7.03585938 -19 7 C-18.67 6.34 -18.34 5.68 -18 5 C-15.92578125 4.47265625 -15.92578125 4.47265625 -13.3125 4.0625 C-8.77885788 3.25176285 -4.3401024 0 0 0 Z " fill="#029DE1" transform="translate(29,45)"/>
<path d="M0 0 C4.95 1.98 4.95 1.98 10 4 C10 4.99 10 5.98 10 7 C10.99 7 11.98 7 13 7 C13 5.35 13 3.7 13 2 C14.32 2.33 15.64 2.66 17 3 C16.67 4.65 16.34 6.3 16 8 C9.86869436 8.36787834 5.88202263 7.40168553 1.125 3.4375 C0 2 0 2 0 0 Z " fill="#636018" transform="translate(63,104)"/>
<path d="M0 0 C0.99 1.32 1.98 2.64 3 4 C3.99 3.34 4.98 2.68 6 2 C6 2.99 6 3.98 6 5 C5.67 5.33 5.34 5.66 5 6 C7.64 6 10.28 6 13 6 C13 6.66 13 7.32 13 8 C11.52093108 8.02689216 10.04172517 8.04634621 8.5625 8.0625 C7.32693359 8.07990234 7.32693359 8.07990234 6.06640625 8.09765625 C4 8 4 8 3 7 C1.14712498 6.92773498 -0.70833878 6.9161878 -2.5625 6.9375 C-3.57441406 6.94652344 -4.58632812 6.95554687 -5.62890625 6.96484375 C-6.41136719 6.97644531 -7.19382812 6.98804687 -8 7 C-8 6.34 -8 5.68 -8 5 C-4.535 4.505 -4.535 4.505 -1 4 C-0.67 2.68 -0.34 1.36 0 0 Z " fill="#182825" transform="translate(90,103)"/>
<path d="M0 0 C2.95409701 1.37154504 5.44008376 2.98863724 8 5 C7.01 5.33 6.02 5.66 5 6 C4.67 6.99 4.34 7.98 4 9 C1.04215769 10.22393475 -0.99727245 9.96516243 -4 9 C-3.01 9 -2.02 9 -1 9 C-1.66 7.35 -2.32 5.7 -3 4 C-2.34 3.34 -1.68 2.68 -1 2 C-0.34 3.32 0.32 4.64 1 6 C0.67 4.02 0.34 2.04 0 0 Z " fill="#2D5063" transform="translate(79,72)"/>
<path d="M0 0 C0.33 0 0.66 0 1 0 C0.67 3.96 0.34 7.92 0 12 C0.66 12.33 1.32 12.66 2 13 C2 13.66 2 14.32 2 15 C-0.9375 14.625 -0.9375 14.625 -4 14 C-5.38971011 11.22057978 -4.58597169 9.92961386 -3.6875 7 C-3.42324219 6.113125 -3.15898438 5.22625 -2.88671875 4.3125 C-2 2 -2 2 0 0 Z " fill="#212529" transform="translate(5,51)"/>
<path d="M0 0 C0 0.66 0 1.32 0 2 C0.66 2.33 1.32 2.66 2 3 C-0.97 3 -3.94 3 -7 3 C-7.33 5.97 -7.66 8.94 -8 12 C-9.5625 10.25 -9.5625 10.25 -11 8 C-10.75 5.9375 -10.75 5.9375 -10 4 C-9.67 3.01 -9.34 2.02 -9 1 C-5.846632 0.29925156 -3.27275026 0 0 0 Z " fill="#3A677E" transform="translate(100,64)"/>
<path d="M0 0 C0.33 1.32 0.66 2.64 1 4 C0.071875 4.12375 0.071875 4.12375 -0.875 4.25 C-3.11681553 4.78570011 -3.11681553 4.78570011 -4 6.6875 C-4.33 7.450625 -4.66 8.21375 -5 9 C-6.31542376 11.01182457 -7.6459068 13.01399663 -9 15 C-9.99 14.67 -10.98 14.34 -12 14 C-7.58506224 5.80082988 -7.58506224 5.80082988 -4 3 C-2.68 3 -1.36 3 0 3 C0 2.01 0 1.02 0 0 Z " fill="#978D10" transform="translate(61,50)"/>
<path d="M0 0 C1.32 0 2.64 0 4 0 C4 5.28 4 10.56 4 16 C2.68 16.33 1.36 16.66 0 17 C0 16.34 0 15.68 0 15 C0.66 15 1.32 15 2 15 C1.85816304 13.24967156 1.71136571 11.49974466 1.5625 9.75 C1.48128906 8.77546875 1.40007813 7.8009375 1.31640625 6.796875 C1.04925416 4.43538247 0.64628032 2.28098935 0 0 Z " fill="#FCF200" transform="translate(47,69)"/>
<path d="M0 0 C-0.99 0.495 -0.99 0.495 -2 1 C-1.505 1.45375 -1.01 1.9075 -0.5 2.375 C1 4 1 4 1 6 C0.34 6 -0.32 6 -1 6 C-1 5.34 -1 4.68 -1 4 C-2.98 4.99 -4.96 5.98 -7 7 C-6.34 5.35 -5.68 3.7 -5 2 C-6.65 2 -8.3 2 -10 2 C-10.33 3.32 -10.66 4.64 -11 6 C-11.99 6 -12.98 6 -14 6 C-12.33231076 2.27222406 -11.43144317 1.17257727 -7.5625 -0.375 C-4.44277897 -0.92231948 -2.87449181 -1.14979672 0 0 Z " fill="#275A67" transform="translate(73,53)"/>
<path d="M0 0 C0.1875 2.875 0.1875 2.875 0 6 C-0.99 6.66 -1.98 7.32 -3 8 C-5 6.75 -5 6.75 -7 5 C-7 3.68 -7 2.36 -7 1 C-4.53721199 -0.231394 -2.7204945 -0.07159196 0 0 Z " fill="#F4F4F4" transform="translate(96,88)"/>
<path d="M0 0 C0 4.39272215 -0.61028469 8.30720848 -3.46875 11.7890625 C-4.93020168 13.24362054 -6.4607374 14.62804855 -8 16 C-8.66 15.67 -9.32 15.34 -10 15 C-8.02 12.69 -6.04 10.38 -4 8 C-4.99 7.38125 -5.98 6.7625 -7 6.125 C-7.99 5.42375 -8.98 4.7225 -10 4 C-10 3.34 -10 2.68 -10 2 C-7.69 2.66 -5.38 3.32 -3 4 C-2.01 2.68 -1.02 1.36 0 0 Z " fill="#303418" transform="translate(122,105)"/>
<path d="M0 0 C2.87687128 0.42620315 4.06571107 1.05683119 6.3125 3 C9.56450399 5.420096 12.01020606 5.68707499 16 6 C16 6.66 16 7.32 16 8 C9.94238206 8.41776675 6.80974903 8.12264203 2 4 C0.625 1.75 0.625 1.75 0 0 Z " fill="#1A181A" transform="translate(136,41)"/>
<path d="M0 0 C5.28 0 10.56 0 16 0 C16.22786458 1.98567708 16.45572917 3.97135417 16.68359375 5.95703125 C16.97170735 8.19396393 16.97170735 8.19396393 18 11 C16.68 10.67 15.36 10.34 14 10 C13.375 6.625 13.375 6.625 13 3 C13.66 2.34 14.32 1.68 15 1 C10.05 1 5.1 1 0 1 C0 0.67 0 0.34 0 0 Z " fill="#2E2F32" transform="translate(77,0)"/>
<path d="M0 0 C2.46800047 1.15173355 4.04783565 2.04783565 6 4 C7.98821313 4.39764263 9.98944339 4.73775349 12 5 C10.68 6.32 9.36 7.64 8 9 C4.63704165 7.55873214 2.37072898 5.79407345 0 3 C0 2.01 0 1.02 0 0 Z " fill="#262425" transform="translate(117,138)"/>
<path d="M0 0 C0.99 0 1.98 0 3 0 C3 4.29 3 8.58 3 13 C2.01 13.33 1.02 13.66 0 14 C0 9.38 0 4.76 0 0 Z " fill="#A29509" transform="translate(46,71)"/>
<path d="M0 0 C0.33 0 0.66 0 1 0 C1.33 4.95 1.66 9.9 2 15 C1.34 15 0.68 15 0 15 C-0.33 15.99 -0.66 16.98 -1 18 C-1.87557031 11.45688671 -2.3548854 6.23352019 0 0 Z " fill="#0592D2" transform="translate(18,73)"/>
<path d="M0 0 C-0.33 0.61875 -0.66 1.2375 -1 1.875 C-2.14193235 3.91018344 -2.14193235 3.91018344 -2 6 C-1.67 6.66 -1.34 7.32 -1 8 C-0.01 8.33 0.98 8.66 2 9 C2 9.66 2 10.32 2 11 C-2.24822374 10.52797514 -4.19989709 8.03344482 -7 5 C-2.25 0 -2.25 0 0 0 Z " fill="#F3E800" transform="translate(52,109)"/>
<path d="M0 0 C3.82163907 1.55696407 6.18618495 4.03408684 9 7 C9.33 7.33 9.66 7.66 10 8 C10.04092937 10.33297433 10.04241723 12.66705225 10 15 C9.67 13.68 9.34 12.36 9 11 C7.68 10.67 6.36 10.34 5 10 C5.66 9.67 6.32 9.34 7 9 C4.94388244 6.00602162 4.94388244 6.00602162 2 4 C0.875 1.9375 0.875 1.9375 0 0 Z " fill="#45525A" transform="translate(87,77)"/>
<path d="M0 0 C0.66 0.99 1.32 1.98 2 3 C3.65 2.67 5.3 2.34 7 2 C6.67 2.99 6.34 3.98 6 5 C5.85507877 6.40664926 5.75371069 7.8181133 5.68359375 9.23046875 C5.64169922 10.03291016 5.59980469 10.83535156 5.55664062 11.66210938 C5.49766602 12.91217773 5.49766602 12.91217773 5.4375 14.1875 C5.39431641 15.03248047 5.35113281 15.87746094 5.30664062 16.74804688 C5.20068482 18.83184433 5.0998498 20.91590103 5 23 C4.67 23 4.34 23 4 23 C4 17.06 4 11.12 4 5 C2.35 5 0.7 5 -1 5 C-0.67 3.35 -0.34 1.7 0 0 Z " fill="#245E5C" transform="translate(48,64)"/>
<path d="M0 0 C0 0.66 0 1.32 0 2 C-5.22512279 3.46670113 -9.5814234 4.22577402 -15 4 C-15.33 3.34 -15.66 2.68 -16 2 C-15.30132812 1.86722656 -14.60265625 1.73445312 -13.8828125 1.59765625 C-12.51769531 1.33275391 -12.51769531 1.33275391 -11.125 1.0625 C-10.22007813 0.88847656 -9.31515625 0.71445313 -8.3828125 0.53515625 C-2.56875 -0.770625 -2.56875 -0.770625 0 0 Z " fill="#150F0E" transform="translate(85,139)"/>
<path d="M0 0 C0.66 0 1.32 0 2 0 C2.33776684 1.7491497 2.67003671 3.49936145 3 5.25 C3.185625 6.22453125 3.37125 7.1990625 3.5625 8.203125 C4 11 4 11 4 15 C3.01 14.67 2.02 14.34 1 14 C0.04738513 9.23692563 -0.08333357 4.8333472 0 0 Z " fill="#1B1413" transform="translate(14,80)"/>
<path d="M0 0 C0.33 0 0.66 0 1 0 C3.20927172 5.97802937 2.93213141 10.73960391 2 17 C-1.0662121 11.15542428 -1.16687463 6.48263681 0 0 Z " fill="#058CC9" transform="translate(145,73)"/>
<path d="M0 0 C1.8125 0.1875 1.8125 0.1875 4 1 C5.75 3.5625 5.75 3.5625 7 6 C5.02 6.99 5.02 6.99 3 8 C1.68 7.01 0.36 6.02 -1 5 C-0.67 4.34 -0.34 3.68 0 3 C0 2.67 0 2.34 0 2 C0 1.34 0 0.68 0 0 Z " fill="#E3D702" transform="translate(55,95)"/>
<path d="M0 0 C2 2 2 2 2.25 4.9375 C2 8 2 8 0 11 C-0.99 10.67 -1.98 10.34 -3 10 C-2.25 3.375 -2.25 3.375 0 0 Z " fill="#516119" transform="translate(118,67)"/>
<path d="M0 0 C7.57142857 4.14285714 7.57142857 4.14285714 10 7 C8.02 7.33 6.04 7.66 4 8 C3.67 7.34 3.34 6.68 3 6 C2.01 6 1.02 6 0 6 C0 4.02 0 2.04 0 0 Z " fill="#E5DB03" transform="translate(52,110)"/>
<path d="M0 0 C-0.66 1.98 -1.32 3.96 -2 6 C-2.66 6 -3.32 6 -4 6 C-4 5.34 -4 4.68 -4 4 C-4.99 4 -5.98 4 -7 4 C-7 4.66 -7 5.32 -7 6 C-8.32 5.67 -9.64 5.34 -11 5 C-9.92570402 4.15504811 -8.84010798 3.32445142 -7.75 2.5 C-7.14671875 2.0359375 -6.5434375 1.571875 -5.921875 1.09375 C-4 0 -4 0 0 0 Z " fill="#09803F" transform="translate(116,95)"/>
<path d="M0 0 C2.15341979 2.15341979 2.64111965 3.03923709 3 6 C2.01 7.485 2.01 7.485 1 9 C0.835 10.19625 0.67 11.3925 0.5 12.625 C0.335 13.73875 0.17 14.8525 0 16 C-0.66 16.33 -1.32 16.66 -2 17 C-2.21824777 10.9981863 -1.5056904 5.80766296 0 0 Z " fill="#03693C" transform="translate(116,61)"/>
<path d="M0 0 C3.875 1.875 3.875 1.875 5 3 C5.25 5.9375 5.25 5.9375 5 9 C4.01 9.66 3.02 10.32 2 11 C0.35 9.35 -1.3 7.7 -3 6 C-2.34 6 -1.68 6 -1 6 C-0.67 5.34 -0.34 4.68 0 4 C1.32 5.32 2.64 6.64 4 8 C2.87548273 5.0280615 1.77706209 2.66559313 0 0 Z " fill="#284A30" transform="translate(99,45)"/>
<path d="M0 0 C-1.50346399 4.20969919 -4.14555814 5.91860139 -8 8 C-10.1953125 7.60546875 -10.1953125 7.60546875 -12 7 C-10.3790787 5.82767315 -8.75313167 4.6622923 -7.125 3.5 C-6.22007812 2.8503125 -5.31515625 2.200625 -4.3828125 1.53125 C-2 0 -2 0 0 0 Z " fill="#1B1515" transform="translate(138,135)"/>
<path d="M0 0 C0.66 0 1.32 0 2 0 C2.1799928 5.21979128 1.97094808 9.07262981 0 14 C-0.66 14 -1.32 14 -2 14 C-1.43393721 9.30976546 -0.81462495 4.65499974 0 0 Z " fill="#130D0D" transform="translate(148,80)"/>
<path d="M0 0 C5.875 2.75 5.875 2.75 7 5 C6.39421747 7.01927511 5.73080266 9.02253397 5 11 C6.65 10.34 8.3 9.68 10 9 C8 12 8 12 5.375 12.6875 C4.59125 12.790625 3.8075 12.89375 3 13 C3.33 10.03 3.66 7.06 4 4 C2.68 3.34 1.36 2.68 0 2 C0 1.34 0 0.68 0 0 Z " fill="#1C3621" transform="translate(70,26)"/>
<path d="M0 0 C0.66 0.66 1.32 1.32 2 2 C0.88200014 3.33920838 -0.24461897 4.67122556 -1.375 6 C-2.00148438 6.7425 -2.62796875 7.485 -3.2734375 8.25 C-3.84320312 8.8275 -4.41296875 9.405 -5 10 C-5.66 10 -6.32 10 -7 10 C-6.42424336 6.64749299 -5.40693737 5.06181371 -2.9375 2.75 C-2.38964844 2.22921875 -1.84179688 1.7084375 -1.27734375 1.171875 C-0.64505859 0.59179688 -0.64505859 0.59179688 0 0 Z " fill="#1B1513" transform="translate(30,36)"/>
<path d="M0 0 C0.33 0 0.66 0 1 0 C1 1.65 1 3.3 1 5 C1.66 5 2.32 5 3 5 C1.375 10.75 1.375 10.75 -2 13 C-2 9.72782865 -1.73516599 7.37445544 -1 4.25 C-0.814375 3.45078125 -0.62875 2.6515625 -0.4375 1.828125 C-0.2209375 0.92320313 -0.2209375 0.92320313 0 0 Z " fill="#2C2C2F" transform="translate(28,120)"/>
<path d="M0 0 C0.33 0 0.66 0 1 0 C1.33 2.97 1.66 5.94 2 9 C1.01 9.66 0.02 10.32 -1 11 C-1.33 10.01 -1.66 9.02 -2 8 C-2.99 8.495 -2.99 8.495 -4 9 C-3.71125 8.443125 -3.4225 7.88625 -3.125 7.3125 C-1.9586747 4.91505355 -0.9660119 2.48403061 0 0 Z " fill="#1D586C" transform="translate(102,91)"/>
<path d="M0 0 C0.66 0 1.32 0 2 0 C2.33 1.65 2.66 3.3 3 5 C2.67 5 2.34 5 2 5 C1.67 6.65 1.34 8.3 1 10 C-2.16115776 8.63016497 -2.9927092 8.0109362 -5 5 C-3.68 5.33 -2.36 5.66 -1 6 C-0.67 4.02 -0.34 2.04 0 0 Z " fill="#282D17" transform="translate(44,91)"/>
<path d="M0 0 C6.625 -0.25 6.625 -0.25 10 2 C10.33 2.66 10.66 3.32 11 4 C8.33333333 4 5.66666667 4 3 4 C1.3125 2 1.3125 2 0 0 Z " fill="#0F658F" transform="translate(73,83)"/>
<path d="M0 0 C2.31 0.33 4.62 0.66 7 1 C6.01 1.495 6.01 1.495 5 2 C5 2.66 5 3.32 5 4 C4.01 4 3.02 4 2 4 C1.67 4.99 1.34 5.98 1 7 C0.34 7 -0.32 7 -1 7 C-0.67 4.69 -0.34 2.38 0 0 Z " fill="#2A2E31" transform="translate(5,45)"/>
<path d="M0 0 C3.96 0 7.92 0 12 0 C12.66 1.98 13.32 3.96 14 6 C13.01 6.33 12.02 6.66 11 7 C10.67 5.02 10.34 3.04 10 1 C6.7 1 3.4 1 0 1 C0 0.67 0 0.34 0 0 Z " fill="#01A0E6" transform="translate(77,4)"/>
<path d="M0 0 C0.33 0.66 0.66 1.32 1 2 C1.33 1.34 1.66 0.68 2 0 C3.98 0 5.96 0 8 0 C7.67 1.32 7.34 2.64 7 4 C4.69 4 2.38 4 0 4 C0 2.68 0 1.36 0 0 Z " fill="#8B800C" transform="translate(75,124)"/>
<path d="M0 0 C-1 3 -1 3 -2.84765625 3.94921875 C-3.57855469 4.19285156 -4.30945312 4.43648437 -5.0625 4.6875 C-6.16271484 5.06455078 -6.16271484 5.06455078 -7.28515625 5.44921875 C-7.85105469 5.63097656 -8.41695312 5.81273437 -9 6 C-9.33 5.01 -9.66 4.02 -10 3 C-3.375 0 -3.375 0 0 0 Z " fill="#272323" transform="translate(67,14)"/>
<path d="M0 0 C3.25524265 3.02272532 5.61820737 6.25718301 8 10 C3.61740632 8.66087415 1.45906075 6.87774964 -1 3 C-0.67 2.01 -0.34 1.02 0 0 Z " fill="#7D7516" transform="translate(50,90)"/>
<path d="M0 0 C0.99 0 1.98 0 3 0 C2.8125 2.375 2.8125 2.375 2 5 C-0.5625 6.3125 -0.5625 6.3125 -3 7 C-3 5.35 -3 3.7 -3 2 C-2.34 2 -1.68 2 -1 2 C-0.67 1.34 -0.34 0.68 0 0 Z " fill="#74690F" transform="translate(104,117)"/>
<path d="M0 0 C3.3 0 6.6 0 10 0 C9.67 0.99 9.34 1.98 9 3 C6.1875 3.1875 6.1875 3.1875 3 3 C2.01 2.01 1.02 1.02 0 0 Z " fill="#DAD9D9" transform="translate(75,98)"/>
<path d="M0 0 C0.99 0.99 1.98 1.98 3 3 C2.39816251 5.02045442 1.72693904 7.02111039 1 9 C0.01 9.495 0.01 9.495 -1 10 C-1.66 7.36 -2.32 4.72 -3 2 C-2.01 2.495 -2.01 2.495 -1 3 C-0.67 2.01 -0.34 1.02 0 0 Z " fill="#142D3A" transform="translate(112,81)"/>
<path d="M0 0 C0.99 0 1.98 0 3 0 C3.33 2.31 3.66 4.62 4 7 C2.68 6.67 1.36 6.34 0 6 C-0.38218767 4.34385343 -0.71395102 2.67542976 -1 1 C-0.67 0.67 -0.34 0.34 0 0 Z " fill="#EAE9E9" transform="translate(74,74)"/>
<path d="M0 0 C0.99 0.33 1.98 0.66 3 1 C3 3.31 3 5.62 3 8 C2.01 8.33 1.02 8.66 0 9 C0 6.03 0 3.06 0 0 Z " fill="#CAC007" transform="translate(113,60)"/>
<path d="M0 0 C3.66881155 0.70554068 6.70450534 2.27735506 10 4 C9.01 5.485 9.01 5.485 8 7 C2.25 3.375 2.25 3.375 0 0 Z " fill="#1B1717" transform="translate(93,11)"/>
<path d="M0 0 C0.99 0 1.98 0 3 0 C2.75 2.375 2.75 2.375 2 5 C-0.0625 6.3125 -0.0625 6.3125 -2 7 C-2.125 4.625 -2.125 4.625 -2 2 C-1.34 1.34 -0.68 0.68 0 0 Z " fill="#948F13" transform="translate(93,99)"/>
<path d="M0 0 C0.99 0.66 1.98 1.32 3 2 C1.6875 4.9375 1.6875 4.9375 0 8 C-0.99 8.33 -1.98 8.66 -3 9 C-3.26218749 5.85375007 -3.24754367 4.38162983 -1.5 1.6875 C-1.005 1.130625 -0.51 0.57375 0 0 Z " fill="#1F272D" transform="translate(145,93)"/>
<path d="M0 0 C2.375 0.75 2.375 0.75 5 2 C5.66 3.32 6.32 4.64 7 6 C4.03 5.01 1.06 4.02 -2 3 C-1.34 2.67 -0.68 2.34 0 2 C0 1.34 0 0.68 0 0 Z " fill="#1F1E22" transform="translate(69,94)"/>
<path d="M0 0 C0.66 0 1.32 0 2 0 C3.85776765 3.13498292 4.20140476 5.37471432 4 9 C3.01 8.67 2.02 8.34 1 8 C0.67 5.36 0.34 2.72 0 0 Z " fill="#C7BC06" transform="translate(106,81)"/>
<path d="M0 0 C2.46800047 1.15173355 4.04783565 2.04783565 6 4 C6 5.32 6 6.64 6 8 C2.24623848 6.74874616 1.75926711 5.4347596 0 2 C0 1.34 0 0.68 0 0 Z " fill="#E4DA03" transform="translate(97,45)"/>
<path d="M0 0 C3.73639216 1.24546405 4.18756513 2.63404953 6 6 C5.01 6.33 4.02 6.66 3 7 C1.68 5.68 0.36 4.36 -1 3 C-0.67 2.01 -0.34 1.02 0 0 Z " fill="#222224" transform="translate(24,132)"/>
<path d="M0 0 C1.98 0 3.96 0 6 0 C5.67 1.32 5.34 2.64 5 4 C3.35 4.33 1.7 4.66 0 5 C0 3.35 0 1.7 0 0 Z " fill="#80760E" transform="translate(86,123)"/>
<path d="M0 0 C2.0625 2.25 2.0625 2.25 4 5 C3.82560493 8.05191378 3.18741485 8.81258515 1 11 C0.63743142 9.5437328 0.28520207 8.08488815 -0.0625 6.625 C-0.35833984 5.40683594 -0.35833984 5.40683594 -0.66015625 4.1640625 C-1 2 -1 2 0 0 Z " fill="#282E34" transform="translate(18,93)"/>
<path d="M0 0 C0.66 0 1.32 0 2 0 C2 2.97 2 5.94 2 9 C1.01 9.495 1.01 9.495 0 10 C-0.19412181 8.52168779 -0.38012131 7.04230684 -0.5625 5.5625 C-0.66691406 4.73878906 -0.77132813 3.91507812 -0.87890625 3.06640625 C-0.91886719 2.38449219 -0.95882813 1.70257813 -1 1 C-0.67 0.67 -0.34 0.34 0 0 Z " fill="#01A0E6" transform="translate(16,70)"/>
<path d="M0 0 C2.01822917 0.06510417 4.03645833 0.13020833 6.0546875 0.1953125 C6.3846875 1.1853125 6.7146875 2.1753125 7.0546875 3.1953125 C3.4246875 2.8653125 -0.2053125 2.5353125 -3.9453125 2.1953125 C-1.9453125 0.1953125 -1.9453125 0.1953125 0 0 Z " fill="#160B0B" transform="translate(109.9453125,136.8046875)"/>
<path d="M0 0 C1.32 0.33 2.64 0.66 4 1 C3.67 2.65 3.34 4.3 3 6 C2.01 6 1.02 6 0 6 C0 4.02 0 2.04 0 0 Z " fill="#1D171A" transform="translate(76,106)"/>
<path d="M0 0 C1.32 0.66 2.64 1.32 4 2 C4 2.66 4 3.32 4 4 C2.02 4.33 0.04 4.66 -2 5 C-2 2 -2 2 0 0 Z " fill="#F3F3F3" transform="translate(88,94)"/>
<path d="M0 0 C0.99 0.33 1.98 0.66 3 1 C2.34 1 1.68 1 1 1 C0.896875 2.093125 0.79375 3.18625 0.6875 4.3125 C0.02692273 7.85559629 -0.2027092 8.93243723 -3 11 C-2.34 9.02 -1.68 7.04 -1 5 C-1.66 4.67 -2.32 4.34 -3 4 C-2.01 2.68 -1.02 1.36 0 0 Z " fill="#0D472A" transform="translate(117,90)"/>
<path d="M0 0 C0.33 0 0.66 0 1 0 C1 1.65 1 3.3 1 5 C2.32 5.33 3.64 5.66 5 6 C5 6.66 5 7.32 5 8 C2.0625 7.625 2.0625 7.625 -1 7 C-1.33 6.34 -1.66 5.68 -2 5 C-1.0625 2.375 -1.0625 2.375 0 0 Z " fill="#1E1716" transform="translate(2,58)"/>
<path d="M0 0 C-0.33 0.99 -0.66 1.98 -1 3 C-2.84765625 3.73046875 -2.84765625 3.73046875 -5.0625 4.1875 C-5.79597656 4.34605469 -6.52945313 4.50460938 -7.28515625 4.66796875 C-8.13400391 4.83232422 -8.13400391 4.83232422 -9 5 C-9 4.01 -9 3.02 -9 2 C-3.375 0 -3.375 0 0 0 Z " fill="#817713" transform="translate(73,46)"/>
<path d="M0 0 C1.98 0 3.96 0 6 0 C6.33 1.65 6.66 3.3 7 5 C5.68 5 4.36 5 3 5 C3 3.68 3 2.36 3 1 C2.01 0.67 1.02 0.34 0 0 Z " fill="#958C0D" transform="translate(73,45)"/>
<path d="M0 0 C0.75 1.75 0.75 1.75 1 4 C-0.8125 6.25 -0.8125 6.25 -3 8 C-3.66 8 -4.32 8 -5 8 C-3.8141763 4.62496331 -2.72426311 2.35277269 0 0 Z " fill="#E0D503" transform="translate(118,81)"/>
<path d="M0 0 C3.2542015 2.83430453 4.5206753 4.68607774 5 9 C4.34 9 3.68 9 3 9 C0 3.375 0 3.375 0 0 Z " fill="#C9BD05" transform="translate(107,72)"/>
<path d="M0 0 C0.33 0 0.66 0 1 0 C1.125 5.75 1.125 5.75 0 8 C-3.16115776 6.63016497 -3.9927092 6.0109362 -6 3 C-3.03 3.495 -3.03 3.495 0 4 C0 2.68 0 1.36 0 0 Z " fill="#10323B" transform="translate(112,61)"/>
<path d="M0 0 C1.32 0 2.64 0 4 0 C4 0.99 4 1.98 4 3 C3.67 3.33 3.34 3.66 3 4 C3.33 4.66 3.66 5.32 4 6 C1.525 5.01 1.525 5.01 -1 4 C-0.67 2.68 -0.34 1.36 0 0 Z " fill="#D4C904" transform="translate(62,102)"/>
<path d="M0 0 C0.66 0.66 1.32 1.32 2 2 C0.22555028 4.24606427 -0.58352485 4.95081002 -3.48046875 5.29296875 C-4.82044922 5.24076172 -4.82044922 5.24076172 -6.1875 5.1875 C-7.53908203 5.14689453 -7.53908203 5.14689453 -8.91796875 5.10546875 C-9.60503906 5.07066406 -10.29210937 5.03585938 -11 5 C-11 4.67 -11 4.34 -11 4 C-5.555 3.01 -5.555 3.01 0 2 C0 1.34 0 0.68 0 0 Z " fill="#21465A" transform="translate(86,93)"/>
<path d="M0 0 C2.475 0.99 2.475 0.99 5 2 C4.67 2.99 4.34 3.98 4 5 C1.4375 6.1875 1.4375 6.1875 -1 7 C-0.67 4.69 -0.34 2.38 0 0 Z " fill="#106B8F" transform="translate(107,90)"/>
<path d="M0 0 C2 1.625 2 1.625 4 4 C4.25 7.25 4.25 7.25 4 10 C3.34 10 2.68 10 2 10 C1.34 6.7 0.68 3.4 0 0 Z " fill="#B5A908" transform="translate(107,52)"/>
<path d="M0 0 C-0.33 0.99 -0.66 1.98 -1 3 C-2.98 3.33 -4.96 3.66 -7 4 C-7 3.01 -7 2.02 -7 1 C-4.53721199 -0.231394 -2.7204945 -0.07159196 0 0 Z " fill="#282627" transform="translate(159,45)"/>
<path d="M0 0 C2.97 0.99 5.94 1.98 9 3 C8.01 3.495 8.01 3.495 7 4 C7 4.66 7 5.32 7 6 C5.68 5.34 4.36 4.68 3 4 C3 3.34 3 2.68 3 2 C2.01 1.67 1.02 1.34 0 1 C0 0.67 0 0.34 0 0 Z " fill="#20282F" transform="translate(114,24)"/>
<path d="M0 0 C6.57403846 -0.37211538 6.57403846 -0.37211538 8.73046875 1.51171875 C9.35888672 2.24841797 9.35888672 2.24841797 10 3 C8.5199159 2.88637738 7.04089926 2.75877092 5.5625 2.625 C4.73878906 2.55539063 3.91507813 2.48578125 3.06640625 2.4140625 C2.38449219 2.27742187 1.70257813 2.14078125 1 2 C0.67 1.34 0.34 0.68 0 0 Z " fill="#302928" transform="translate(60,140)"/>
<path d="M0 0 C2.86697492 1.28519565 4.97607712 2.57129254 7 5 C7 5.66 7 6.32 7 7 C4.13302508 5.71480435 2.02392288 4.42870746 0 2 C0 1.34 0 0.68 0 0 Z " fill="#C8BE05" transform="translate(104,64)"/>
<path d="M0 0 C0.99 0 1.98 0 3 0 C3.33 1.65 3.66 3.3 4 5 C3.34 5 2.68 5 2 5 C2 5.66 2 6.32 2 7 C1.34 6.67 0.68 6.34 0 6 C0 4.02 0 2.04 0 0 Z " fill="#252F37" transform="translate(159,56)"/>
<path d="M0 0 C2.97 0.33 5.94 0.66 9 1 C9 1.66 9 2.32 9 3 C6.36 3 3.72 3 1 3 C0.67 2.01 0.34 1.02 0 0 Z " fill="#130C0C" transform="translate(143,46)"/>
<path d="M0 0 C2.89932357 2.39509338 3.50168276 4.31245243 4 8 C3.01 8 2.02 8 1 8 C-0.35439668 5.29120665 -0.06501451 2.99066732 0 0 Z " fill="#151518" transform="translate(20,100)"/>
<path d="M0 0 C0.99 0 1.98 0 3 0 C2.67 3.96 2.34 7.92 2 12 C1.67 12 1.34 12 1 12 C0.67 8.04 0.34 4.08 0 0 Z " fill="#5D561F" transform="translate(46,71)"/>
<path d="M0 0 C1.98 0 3.96 0 6 0 C6.66 1.32 7.32 2.64 8 4 C6.02 3.34 4.04 2.68 2 2 C1.67 2.66 1.34 3.32 1 4 C0.67 2.68 0.34 1.36 0 0 Z " fill="#166E91" transform="translate(102,62)"/>
<path d="M0 0 C0.99 0 1.98 0 3 0 C3.33 0.99 3.66 1.98 4 3 C1 4 1 4 -1 4 C-1.99 4.66 -2.98 5.32 -4 6 C-2.84826645 3.53199953 -1.95216435 1.95216435 0 0 Z " fill="#DEDEDE" transform="translate(69,57)"/>
<path d="M0 0 C0.66 0.33 1.32 0.66 2 1 C2 3.31 2 5.62 2 8 C1.34 8 0.68 8 0 8 C-0.38063221 5.6739143 -0.71269945 3.33944736 -1 1 C-0.67 0.67 -0.34 0.34 0 0 Z " fill="#11171D" transform="translate(29,117)"/>
<path d="M0 0 C0.66 0.99 1.32 1.98 2 3 C1.34 4.32 0.68 5.64 0 7 C-0.99 6.67 -1.98 6.34 -3 6 C-3 5.34 -3 4.68 -3 4 C-2.34 4 -1.68 4 -1 4 C-0.67 2.68 -0.34 1.36 0 0 Z " fill="#796F0D" transform="translate(111,104)"/>
<path d="M0 0 C0.33 0.66 0.66 1.32 1 2 C0.06553465 4.03144641 -0.93224776 6.03533587 -2 8 C-2.33 7.34 -2.66 6.68 -3 6 C-3.66 5.67 -4.32 5.34 -5 5 C-3.35 3.35 -1.7 1.7 0 0 Z " fill="#CEC306" transform="translate(126,95)"/>
<path d="M0 0 C1.32 0 2.64 0 4 0 C4 1.65 4 3.3 4 5 C3.01 5.495 3.01 5.495 2 6 C1.34 5.34 0.68 4.68 0 4 C0 2.68 0 1.36 0 0 Z " fill="#ECE102" transform="translate(47,69)"/>
</svg>
